<svg width="12" height="4" viewBox="0 0 12 4" fill="none" xmlns="http://www.w3.org/2000/svg">
<path d="M6.77488 1.80923C6.7754 1.4909 6.49601 1.23245 6.15083 1.23196C5.80565 1.23148 5.5254 1.48914 5.52488 1.80747C5.52435 2.1258 5.80374 2.38425 6.14892 2.38474C6.4941 2.38523 6.77435 2.12756 6.77488 1.80923Z" stroke="#98A2B3" stroke-width="1.66667" stroke-linecap="round" stroke-linejoin="round"/>
<path d="M2.39988 1.80306C2.40041 1.48473 2.12101 1.22628 1.77584 1.22579C1.43066 1.2253 1.15041 1.48297 1.14988 1.8013C1.14935 2.11963 1.42875 2.37808 1.77393 2.37857C2.1191 2.37905 2.39935 2.12139 2.39988 1.80306Z" stroke="#98A2B3" stroke-width="1.66667" stroke-linecap="round" stroke-linejoin="round"/>
<path d="M11.1499 1.81541C11.1504 1.49707 10.871 1.23862 10.5258 1.23814C10.1806 1.23765 9.9004 1.49531 9.89987 1.81364C9.89934 2.13197 10.1787 2.39042 10.5239 2.39091C10.8691 2.3914 11.1493 2.13374 11.1499 1.81541Z" stroke="#98A2B3" stroke-width="1.66667" stroke-linecap="round" stroke-linejoin="round"/>
</svg>
