<svg width="14" height="13" viewBox="0 0 14 13" fill="none" xmlns="http://www.w3.org/2000/svg">
<path d="M13.5352 6.0322C13.4377 6.03157 13.3429 6.00049 13.2639 5.94331L6.98508 1.46113L0.706289 5.94331C0.605558 6.00297 0.486121 6.02269 0.371556 5.99859C0.256992 5.97449 0.155625 5.90832 0.0874671 5.81313C0.0193092 5.71795 -0.0106867 5.60067 0.00340106 5.48445C0.0174888 5.36822 0.0746363 5.26151 0.163562 5.18536L6.71372 0.506681C6.79296 0.450263 6.88781 0.419946 6.98508 0.419946C7.08235 0.419946 7.1772 0.450263 7.25644 0.506681L13.8066 5.18536C13.8865 5.24319 13.946 5.32478 13.9768 5.41848C14.0075 5.51219 14.0079 5.6132 13.9778 5.70712C13.9477 5.80103 13.8887 5.88303 13.8092 5.94141C13.7297 5.9998 13.6338 6.03157 13.5352 6.0322ZM1.83853 3.22499C1.71444 3.22499 1.59544 3.1757 1.5077 3.08796C1.41996 3.00022 1.37066 2.88121 1.37066 2.75713V0.885654C1.37066 0.761567 1.41996 0.642563 1.5077 0.554821C1.59544 0.467079 1.71444 0.417786 1.83853 0.417786H3.71C3.83409 0.417786 3.95309 0.467079 4.04084 0.554821C4.12858 0.642563 4.17787 0.761567 4.17787 0.885654C4.17787 1.00974 4.12858 1.12874 4.04084 1.21649C3.95309 1.30423 3.83409 1.35352 3.71 1.35352H2.3064V2.75713C2.3064 2.88121 2.25711 3.00022 2.16936 3.08796C2.08162 3.1757 1.96262 3.22499 1.83853 3.22499Z" fill="black"/>
<path d="M11.1958 12.5824H8.8565C8.73241 12.5824 8.6134 12.5331 8.52566 12.4453C8.43792 12.3576 8.38863 12.2386 8.38863 12.1145V8.83944H5.58142V12.1145C5.58142 12.2386 5.53213 12.3576 5.44438 12.4453C5.35664 12.5331 5.23764 12.5824 5.11355 12.5824H2.77421C2.40195 12.5824 2.04494 12.4345 1.78171 12.1713C1.51848 11.908 1.37061 11.551 1.37061 11.1788V6.50009C1.37061 6.37601 1.4199 6.257 1.50764 6.16926C1.59538 6.08152 1.71439 6.03223 1.83847 6.03223C1.96256 6.03223 2.08156 6.08152 2.16931 6.16926C2.25705 6.257 2.30634 6.37601 2.30634 6.50009V11.1788C2.30634 11.3029 2.35563 11.4219 2.44338 11.5096C2.53112 11.5974 2.65012 11.6466 2.77421 11.6466H4.64568V8.37157C4.64568 8.24748 4.69498 8.12848 4.78272 8.04073C4.87046 7.95299 4.98946 7.9037 5.11355 7.9037H8.8565C8.98058 7.9037 9.09959 7.95299 9.18733 8.04073C9.27507 8.12848 9.32436 8.24748 9.32436 8.37157V11.6466H11.1958C11.3199 11.6466 11.4389 11.5974 11.5267 11.5096C11.6144 11.4219 11.6637 11.3029 11.6637 11.1788V6.50009C11.6637 6.37601 11.713 6.257 11.8007 6.16926C11.8885 6.08152 12.0075 6.03223 12.1316 6.03223C12.2557 6.03223 12.3747 6.08152 12.4624 6.16926C12.5501 6.257 12.5994 6.37601 12.5994 6.50009V11.1788C12.5994 11.551 12.4516 11.908 12.1883 12.1713C11.9251 12.4345 11.5681 12.5824 11.1958 12.5824Z" fill="black"/>
</svg>
