<svg width="19" height="24" viewBox="0 0 19 24" fill="none" xmlns="http://www.w3.org/2000/svg">
<path d="M2.33228 9.81518C2.33228 10.0673 2.53938 10.2744 2.79151 10.2744H12.3274C12.5796 10.2744 12.7867 10.0673 12.7867 9.81518C12.7867 9.55855 12.5796 9.35595 12.3274 9.35595H2.79151C2.53938 9.35595 2.33228 9.56305 2.33228 9.81518ZM12.3274 11.9448H11.8952H2.79151C2.53938 11.9448 2.33228 12.1519 2.33228 12.404C2.33228 12.6562 2.53938 12.8633 2.79151 12.8633H11.8952H12.3274C12.5796 12.8633 12.7867 12.6562 12.7867 12.404C12.7867 12.1519 12.5796 11.9448 12.3274 11.9448ZM12.3274 14.5381H2.79151C2.53938 14.5381 2.33228 14.7452 2.33228 14.9974C2.33228 15.2495 2.53938 15.4566 2.79151 15.4566H12.3274C12.5796 15.4566 12.7867 15.2495 12.7867 14.9974C12.7867 14.7452 12.5796 14.5381 12.3274 14.5381ZM12.3274 17.1315H2.79151C2.53938 17.1315 2.33228 17.3386 2.33228 17.5907C2.33228 17.8428 2.53938 18.0499 2.79151 18.0499H12.3274C12.5796 18.0499 12.7867 17.8428 12.7867 17.5907C12.7867 17.3341 12.5796 17.1315 12.3274 17.1315ZM12.3274 19.7203H2.79151C2.53938 19.7203 2.33228 19.9274 2.33228 20.1795C2.33228 20.4317 2.53938 20.6388 2.79151 20.6388H12.3274C12.5796 20.6388 12.7867 20.4317 12.7867 20.1795C12.7867 19.9274 12.5796 19.7203 12.3274 19.7203ZM2.79151 7.46047H9.30188C9.55401 7.46047 9.76112 7.25336 9.76112 7.00123C9.76112 6.7491 9.55401 6.54199 9.30188 6.54199H2.79151C2.53938 6.54199 2.33228 6.7491 2.33228 7.00123C2.33228 7.25336 2.53938 7.46047 2.79151 7.46047Z" fill="white"/>
<path d="M15.2854 6.85773C15.2809 6.84423 15.2764 6.83072 15.2719 6.81721C15.2539 6.78119 15.2359 6.74518 15.2134 6.70916C15.2089 6.70015 15.2044 6.69565 15.1999 6.68665C15.1728 6.64613 15.1413 6.6056 15.1053 6.56959L12.4354 3.89971C12.3994 3.86369 12.3634 3.83217 12.3184 3.80516C12.3094 3.79615 12.2959 3.79165 12.2823 3.78715C12.2508 3.76914 12.2193 3.75113 12.1878 3.73762C12.1698 3.73312 12.1563 3.72862 12.1383 3.72411C12.1068 3.71511 12.0797 3.7016 12.0437 3.6971C11.9942 3.6881 11.9447 3.68359 11.8906 3.68359H0.760893C0.337675 3.68359 0 4.02577 0 4.44449V22.9896C0 23.4128 0.342177 23.7505 0.760893 23.7505L14.5695 23.755C14.7721 23.755 14.9657 23.6739 15.1098 23.5299C15.2539 23.3858 15.3349 23.1922 15.3349 22.9896V7.10986C15.3349 7.06034 15.3304 7.01081 15.3214 6.96129C15.3079 6.92527 15.2944 6.88925 15.2854 6.85773ZM13.7996 22.2332L1.52179 22.2287V5.20988L11.1298 5.20538V7.10536C11.1298 7.52408 11.4719 7.86626 11.8906 7.86626L13.7996 7.87076V22.2332Z" fill="white"/>
<path d="M18.3649 3.98923C18.3559 3.95321 18.3469 3.92169 18.3334 3.88567C18.3289 3.87217 18.3244 3.85866 18.3199 3.84515C18.3019 3.80913 18.2839 3.77312 18.2614 3.7371C18.2568 3.72809 18.2523 3.72359 18.2478 3.71459C18.2208 3.67407 18.1893 3.63354 18.1533 3.59753L15.4879 0.932148C15.4519 0.896129 15.4159 0.864613 15.3709 0.837599C15.3619 0.828594 15.3483 0.824092 15.3348 0.819589C15.3033 0.80158 15.2718 0.783571 15.2403 0.770064C15.2223 0.765562 15.2088 0.761059 15.1908 0.756557C15.1592 0.747552 15.1322 0.734045 15.0962 0.729543C15.0512 0.711534 14.9972 0.707031 14.9476 0.707031L3.81338 0.711534C3.39017 0.711534 3.05249 1.05371 3.05249 1.47243V2.99421H4.57878V2.23782L14.1867 2.23332V4.1333C14.1867 4.55202 14.5289 4.8942 14.9476 4.8942L16.8566 4.8987V19.2611H16.0057V20.7874H17.6175C17.8201 20.7874 18.0137 20.7064 18.1578 20.5623C18.3019 20.4182 18.3829 20.2246 18.3829 20.022V4.14231C18.3829 4.08828 18.3784 4.03875 18.3649 3.98923Z" fill="white"/>
</svg>
