<svg width="8" height="5" viewBox="0 0 8 5" fill="none" xmlns="http://www.w3.org/2000/svg">
<path d="M3.96193 4.20024C3.96622 4.19518 3.9679 4.18846 3.97219 4.1834L6.96897 0.924669C7.13636 0.74134 7.13425 0.446466 6.96427 0.266229C6.96253 0.264569 6.96079 0.263747 6.95906 0.262926C6.92121 0.219252 6.87396 0.184133 6.82059 0.160023C6.76722 0.135913 6.70903 0.123392 6.65009 0.123337L0.609511 0.178701C0.549494 0.180191 0.490513 0.194423 0.436735 0.220394C0.382957 0.246365 0.335694 0.28344 0.298284 0.329001L0.296542 0.327341C0.215561 0.419555 0.171474 0.536826 0.172337 0.657721C0.1732 0.778616 0.218956 0.895063 0.301243 0.985781L3.35121 4.20584C3.3892 4.24827 3.43626 4.28219 3.48914 4.30526C3.54203 4.32833 3.59948 4.34 3.65754 4.33947C3.7156 4.33894 3.77288 4.32622 3.82543 4.30218C3.87798 4.27814 3.92455 4.24336 3.96193 4.20024Z" fill="#335F32"/>
<path d="M3.96193 4.20024C3.96622 4.19518 3.9679 4.18846 3.97219 4.1834L6.96897 0.924669C7.13636 0.74134 7.13425 0.446466 6.96427 0.266229C6.96253 0.264569 6.96079 0.263747 6.95906 0.262926C6.92121 0.219252 6.87396 0.184133 6.82059 0.160023C6.76722 0.135913 6.70903 0.123392 6.65009 0.123337L0.609511 0.178701C0.549494 0.180191 0.490513 0.194423 0.436735 0.220394C0.382957 0.246365 0.335694 0.28344 0.298284 0.329001L0.296542 0.327341C0.215561 0.419555 0.171474 0.536826 0.172337 0.657721C0.1732 0.778616 0.218956 0.895063 0.301243 0.985781L3.35121 4.20584C3.3892 4.24827 3.43626 4.28219 3.48914 4.30526C3.54203 4.32833 3.59948 4.34 3.65754 4.33947C3.7156 4.33894 3.77288 4.32622 3.82543 4.30218C3.87798 4.27814 3.92455 4.24336 3.96193 4.20024Z" fill="black" fill-opacity="0.2"/>
</svg>
