<svg width="15" height="18" viewBox="0 0 15 18" fill="none" xmlns="http://www.w3.org/2000/svg">
<path d="M6.13636 0C3.88636 0 2.04545 1.73571 2.04545 3.85714V6.42857C0.886364 6.42857 0 7.26429 0 8.35714V12.2143C0 13.7571 0.613636 15.2357 1.77273 16.3286C2.93182 17.4214 4.5 18 6.13636 18C9.06818 18 11.5227 16.0714 12.1364 13.5H12.2727C13.0227 13.5 13.7045 13.2429 14.1818 12.7286C14.7273 12.2143 15 11.5714 15 10.9286C15 10.2857 14.7273 9.57857 14.1818 9.12857C13.6364 8.67857 13.0227 8.35714 12.2727 8.35714C12.2727 7.26429 11.3864 6.42857 10.2273 6.42857V3.85714C10.2273 1.73571 8.38636 0 6.13636 0ZM13.2273 10.0286C13.5 10.2857 13.6364 10.6071 13.6364 10.9286C13.6364 11.25 13.5 11.5714 13.2273 11.8286C12.8864 12.15 12.3409 12.2786 11.7955 12.15C11.25 11.9571 10.9091 11.5071 10.9091 10.9286C10.9091 10.6071 11.0455 10.2857 11.3182 10.0286C11.4545 9.9 11.6591 9.77143 11.8636 9.70714C12 9.64286 12.1364 9.64286 12.2727 9.64286C12.6136 9.64286 12.9545 9.77143 13.2273 10.0286ZM10.9091 8.35714V8.74286C10.7045 8.87143 10.5 9 10.3636 9.12857C10.0227 9.45 9.75 9.83571 9.68182 10.2857H3.40909C3 10.2857 2.72727 10.5429 2.72727 10.9286V12.2143C2.72727 12.6 3 12.8571 3.40909 12.8571C3.81818 12.8571 4.09091 12.6 4.09091 12.2143V11.5714H5.45455V12.2143C5.45455 12.6 5.72727 12.8571 6.13636 12.8571C6.54545 12.8571 6.81818 12.6 6.81818 12.2143V11.5714H9.61364C9.81818 12.2143 10.2273 12.7286 10.7727 13.1143C10.3636 15.1714 8.45455 16.7143 6.13636 16.7143C4.84091 16.7143 3.68182 16.2643 2.72727 15.4286C1.84091 14.5929 1.36364 13.4357 1.36364 12.2143V8.35714C1.36364 7.97143 1.63636 7.71429 2.04545 7.71429H10.2273C10.6364 7.71429 10.9091 7.97143 10.9091 8.35714ZM3.40909 6.42857V3.85714C3.40909 2.44286 4.63636 1.28571 6.13636 1.28571C7.63636 1.28571 8.86364 2.44286 8.86364 3.85714V6.42857H3.40909Z" fill="#4B4B4B"/>
</svg>
