<svg width="16" height="16" viewBox="0 0 16 16" fill="none" xmlns="http://www.w3.org/2000/svg">
<path d="M7.99995 0.150879C6.41785 0.150879 4.87129 0.607345 3.55582 1.46255C2.24036 2.31776 1.21508 3.5333 0.60964 4.95546C0.00419835 6.37762 -0.154213 7.94253 0.154439 9.45229C0.46309 10.962 1.22494 12.3488 2.34365 13.4373C3.46236 14.5258 4.88768 15.2671 6.43938 15.5674C7.99108 15.8677 9.59945 15.7135 11.0611 15.1245C12.5228 14.5354 13.7721 13.5378 14.651 12.2579C15.53 10.978 15.9992 9.47323 15.9992 7.9339C15.9968 5.87042 15.1533 3.89211 13.6536 2.43301C12.154 0.973905 10.1207 0.153174 7.99995 0.150879ZM7.99995 14.1603C6.73427 14.1603 5.49702 13.7951 4.44465 13.111C3.39228 12.4268 2.57205 11.4544 2.0877 10.3166C1.60335 9.17891 1.47662 7.92699 1.72354 6.71918C1.97046 5.51138 2.57994 4.40194 3.47491 3.53116C4.36988 2.66038 5.51014 2.06737 6.75149 1.82712C7.99285 1.58687 9.27955 1.71018 10.4489 2.18144C11.6182 2.6527 12.6177 3.45076 13.3208 4.47469C14.024 5.49861 14.3993 6.70243 14.3993 7.9339C14.3974 9.58466 13.7225 11.1673 12.5228 12.3345C11.3231 13.5018 9.69657 14.1584 7.99995 14.1603ZM9.6783 6.09227L8.79987 6.58593V4.04239C8.79987 3.83597 8.71559 3.638 8.56558 3.49204C8.41556 3.34609 8.2121 3.26409 7.99995 3.26409C7.7878 3.26409 7.58433 3.34609 7.43432 3.49204C7.2843 3.638 7.20003 3.83597 7.20003 4.04239V7.9339C7.20006 8.07051 7.23704 8.2047 7.30725 8.323C7.37747 8.44131 7.47844 8.53955 7.60002 8.60786C7.72161 8.67618 7.85953 8.71216 7.99994 8.7122C8.14034 8.71223 8.27829 8.67632 8.39991 8.60807L10.4782 7.44062C10.5693 7.38954 10.6491 7.32151 10.7131 7.24041C10.7771 7.15932 10.8241 7.06674 10.8513 6.96798C10.8786 6.86921 10.8855 6.76619 10.8718 6.66481C10.8581 6.56342 10.8241 6.46566 10.7715 6.37709C10.719 6.28853 10.649 6.21091 10.5656 6.14866C10.4822 6.08641 10.3871 6.04076 10.2856 6.01431C10.184 5.98786 10.0781 5.98113 9.97395 5.99451C9.86976 6.00788 9.76929 6.0411 9.6783 6.09227Z" fill="#335F32"/>
<path d="M7.99995 0.150879C6.41785 0.150879 4.87129 0.607345 3.55582 1.46255C2.24036 2.31776 1.21508 3.5333 0.60964 4.95546C0.00419835 6.37762 -0.154213 7.94253 0.154439 9.45229C0.46309 10.962 1.22494 12.3488 2.34365 13.4373C3.46236 14.5258 4.88768 15.2671 6.43938 15.5674C7.99108 15.8677 9.59945 15.7135 11.0611 15.1245C12.5228 14.5354 13.7721 13.5378 14.651 12.2579C15.53 10.978 15.9992 9.47323 15.9992 7.9339C15.9968 5.87042 15.1533 3.89211 13.6536 2.43301C12.154 0.973905 10.1207 0.153174 7.99995 0.150879ZM7.99995 14.1603C6.73427 14.1603 5.49702 13.7951 4.44465 13.111C3.39228 12.4268 2.57205 11.4544 2.0877 10.3166C1.60335 9.17891 1.47662 7.92699 1.72354 6.71918C1.97046 5.51138 2.57994 4.40194 3.47491 3.53116C4.36988 2.66038 5.51014 2.06737 6.75149 1.82712C7.99285 1.58687 9.27955 1.71018 10.4489 2.18144C11.6182 2.6527 12.6177 3.45076 13.3208 4.47469C14.024 5.49861 14.3993 6.70243 14.3993 7.9339C14.3974 9.58466 13.7225 11.1673 12.5228 12.3345C11.3231 13.5018 9.69657 14.1584 7.99995 14.1603ZM9.6783 6.09227L8.79987 6.58593V4.04239C8.79987 3.83597 8.71559 3.638 8.56558 3.49204C8.41556 3.34609 8.2121 3.26409 7.99995 3.26409C7.7878 3.26409 7.58433 3.34609 7.43432 3.49204C7.2843 3.638 7.20003 3.83597 7.20003 4.04239V7.9339C7.20006 8.07051 7.23704 8.2047 7.30725 8.323C7.37747 8.44131 7.47844 8.53955 7.60002 8.60786C7.72161 8.67618 7.85953 8.71216 7.99994 8.7122C8.14034 8.71223 8.27829 8.67632 8.39991 8.60807L10.4782 7.44062C10.5693 7.38954 10.6491 7.32151 10.7131 7.24041C10.7771 7.15932 10.8241 7.06674 10.8513 6.96798C10.8786 6.86921 10.8855 6.76619 10.8718 6.66481C10.8581 6.56342 10.8241 6.46566 10.7715 6.37709C10.719 6.28853 10.649 6.21091 10.5656 6.14866C10.4822 6.08641 10.3871 6.04076 10.2856 6.01431C10.184 5.98786 10.0781 5.98113 9.97395 5.99451C9.86976 6.00788 9.76929 6.0411 9.6783 6.09227Z" fill="black" fill-opacity="0.2"/>
</svg>
