<svg width="24" height="25" viewBox="0 0 24 25" fill="none" xmlns="http://www.w3.org/2000/svg">
<path d="M20.7626 5.73551H19.4706C20.7064 5.43934 21.6255 4.33126 21.6255 3.00871C21.6255 1.46147 20.3643 0.200195 18.817 0.200195C17.2698 0.200195 16.0085 1.46147 16.0085 3.00871C16.0085 4.33126 16.9277 5.43934 18.1634 5.73551H16.8715C15.5438 5.73551 14.3285 6.56785 13.8485 7.80871C13.8434 7.82402 13.8383 7.84445 13.8332 7.85977L13.7617 8.1253H10.2332L10.1668 7.86488C10.1617 7.84445 10.1566 7.82913 10.1515 7.81381C9.6766 6.56785 8.46128 5.73551 7.12851 5.73551H5.8366C7.07234 5.43934 7.99149 4.33126 7.99149 3.00871C7.99149 1.46147 6.73021 0.200195 5.18298 0.200195C3.63574 0.200195 2.37447 1.46147 2.37447 3.00871C2.37447 4.33126 3.29362 5.43934 4.52936 5.73551H3.23745C1.45532 5.73551 0 7.18573 0 8.97296V12.7466C0 13.5891 0.684255 14.2734 1.5217 14.2734H2.33362V19.824C2.33362 20.1049 2.5634 20.3347 2.84426 20.3347H7.5166C7.79745 20.3347 8.02723 20.1049 8.02723 19.824V17.4802H8.90043V23.6896C8.90043 23.9704 9.13021 24.2002 9.41106 24.2002H14.5889C14.8698 24.2002 15.0996 23.9704 15.0996 23.6896V17.4802H15.9728V19.824C15.9728 20.1049 16.2026 20.3347 16.4834 20.3347H21.1557C21.4366 20.3347 21.6664 20.1049 21.6664 19.824V14.2734H22.4783C23.3209 14.2734 24.0051 13.5891 24.0051 12.7466V8.97296C24 7.19083 22.5498 5.73551 20.7626 5.73551ZM17.0298 3.00871C17.0298 2.02317 17.8315 1.22147 18.817 1.22147C19.8026 1.22147 20.6043 2.02317 20.6043 3.00871C20.6043 3.99424 19.8026 4.79594 18.817 4.79594C17.8315 4.79594 17.0298 3.99424 17.0298 3.00871ZM3.39574 3.00871C3.39574 2.02317 4.19745 1.22147 5.18298 1.22147C6.16851 1.22147 6.97021 2.02317 6.97021 3.00871C6.97021 3.99424 6.16851 4.79594 5.18298 4.79594C4.19745 4.79594 3.39574 3.99424 3.39574 3.00871ZM5.69362 19.3134V14.544H4.67234V19.3134H3.35489V13.7627V8.79934H2.33362V13.2521H1.5217C1.24596 13.2521 1.02128 13.0274 1.02128 12.7466V8.97296C1.02128 7.75254 2.01702 6.75679 3.23745 6.75679H7.12851C8.03234 6.75679 8.85447 7.31849 9.18638 8.15594L9.1966 8.19168C7.55745 8.49807 6.31149 9.93296 6.31149 11.6589V15.8462C6.31149 16.3976 6.58723 16.8827 7.00596 17.1789V19.3134H5.69362ZM14.0783 23.1789H12.5106V18.1287H11.4894V23.1789H9.9217V16.9696V11.3934H8.90043V16.4589H7.94553C7.60851 16.4589 7.33277 16.1832 7.33277 15.8462V11.6589C7.33277 10.2751 8.46128 9.14658 9.84511 9.14658H14.16C15.5438 9.14658 16.6723 10.2751 16.6723 11.6589V15.8462C16.6723 16.1832 16.3966 16.4589 16.0596 16.4589H15.1047V11.3832H14.0834V16.9696V23.1789H14.0783ZM22.9787 12.7466C22.9787 13.0223 22.754 13.2521 22.4732 13.2521H21.6613V8.79934H20.64V13.7627V19.3134H19.3277V14.544H18.3064V19.3134H16.994V17.1789C17.4128 16.8827 17.6885 16.3976 17.6885 15.8462V11.6589C17.6885 9.93296 16.4426 8.49296 14.8034 8.19168L14.8136 8.15083C15.1455 7.31339 15.9728 6.75679 16.8715 6.75679H20.7626C21.983 6.75679 22.9787 7.75254 22.9787 8.97296V12.7466Z" fill="white"/>
</svg>
