<svg width="23" height="24" viewBox="0 0 23 24" fill="none" xmlns="http://www.w3.org/2000/svg">
<path d="M6.70833 0.110352H2.875C2.1125 0.110352 1.38124 0.413253 0.842068 0.95242C0.302901 1.49159 0 2.22285 0 2.98535V20.2354C0 20.9978 0.302901 21.7291 0.842068 22.2683C1.38124 22.8075 2.1125 23.1104 2.875 23.1104H6.70833C7.47083 23.1104 8.2021 22.8075 8.74127 22.2683C9.28043 21.7291 9.58333 20.9978 9.58333 20.2354V2.98535C9.58333 2.22285 9.28043 1.49159 8.74127 0.95242C8.2021 0.413253 7.47083 0.110352 6.70833 0.110352ZM7.66667 20.2354C7.66667 20.4895 7.5657 20.7333 7.38598 20.913C7.20625 21.0927 6.9625 21.1937 6.70833 21.1937H2.875C2.62083 21.1937 2.37708 21.0927 2.19736 20.913C2.01763 20.7333 1.91667 20.4895 1.91667 20.2354V2.98535C1.91667 2.73119 2.01763 2.48743 2.19736 2.30771C2.37708 2.12799 2.62083 2.02702 2.875 2.02702H6.70833C6.9625 2.02702 7.20625 2.12799 7.38598 2.30771C7.5657 2.48743 7.66667 2.73119 7.66667 2.98535V20.2354ZM20.125 15.1562H14.375C13.6125 15.1562 12.8812 15.4591 12.3421 15.9983C11.8029 16.5374 11.5 17.2687 11.5 18.0312V20.2354C11.5 20.9978 11.8029 21.7291 12.3421 22.2683C12.8812 22.8075 13.6125 23.1104 14.375 23.1104H20.125C20.8875 23.1104 21.6188 22.8075 22.1579 22.2683C22.6971 21.7291 23 20.9978 23 20.2354V18.0312C23 17.2687 22.6971 16.5374 22.1579 15.9983C21.6188 15.4591 20.8875 15.1562 20.125 15.1562ZM21.0833 20.2354C21.0833 20.4895 20.9824 20.7333 20.8026 20.913C20.6229 21.0927 20.3792 21.1937 20.125 21.1937H14.375C14.1208 21.1937 13.8771 21.0927 13.6974 20.913C13.5176 20.7333 13.4167 20.4895 13.4167 20.2354V18.0312C13.4167 17.777 13.5176 17.5333 13.6974 17.3535C13.8771 17.1738 14.1208 17.0729 14.375 17.0729H20.125C20.3792 17.0729 20.6229 17.1738 20.8026 17.3535C20.9824 17.5333 21.0833 17.777 21.0833 18.0312V20.2354ZM20.125 0.110352H14.375C13.6125 0.110352 12.8812 0.413253 12.3421 0.95242C11.8029 1.49159 11.5 2.22285 11.5 2.98535V10.3645C11.5 11.127 11.8029 11.8583 12.3421 12.3974C12.8812 12.9366 13.6125 13.2395 14.375 13.2395H20.125C20.8875 13.2395 21.6188 12.9366 22.1579 12.3974C22.6971 11.8583 23 11.127 23 10.3645V2.98535C23 2.22285 22.6971 1.49159 22.1579 0.95242C21.6188 0.413253 20.8875 0.110352 20.125 0.110352ZM21.0833 10.3645C21.0833 10.6187 20.9824 10.8624 20.8026 11.0422C20.6229 11.2219 20.3792 11.3229 20.125 11.3229H14.375C14.1208 11.3229 13.8771 11.2219 13.6974 11.0422C13.5176 10.8624 13.4167 10.6187 13.4167 10.3645V2.98535C13.4167 2.73119 13.5176 2.48743 13.6974 2.30771C13.8771 2.12799 14.1208 2.02702 14.375 2.02702H20.125C20.3792 2.02702 20.6229 2.12799 20.8026 2.30771C20.9824 2.48743 21.0833 2.73119 21.0833 2.98535V10.3645Z" fill="white"/>
</svg>
