<svg width="20" height="18" viewBox="0 0 20 18" fill="none" xmlns="http://www.w3.org/2000/svg">
<path d="M0.685341 6.10179C0.706241 6.16132 0.743605 6.2126 0.79244 6.24877C0.841275 6.28494 0.899254 6.30429 0.95863 6.30423H1.44279V12.6739C1.44279 12.7568 1.47352 12.8363 1.52822 12.8948C1.58291 12.9534 1.6571 12.9863 1.73445 12.9863C10.6322 12.9863 1.13071 12.9876 8.83062 12.9863V17.6876C8.83062 17.7704 8.86135 17.8499 8.91605 17.9085C8.97075 17.967 9.04493 18 9.12229 18H18.2703C18.3477 18 18.4218 17.967 18.4765 17.9085C18.5312 17.8499 18.562 17.7704 18.562 17.6876V11.3169H19.0418C19.1011 11.3169 19.1591 11.2975 19.2078 11.2613C19.2566 11.2251 19.294 11.1738 19.3148 11.1143C19.3357 11.0548 19.3391 10.9899 19.3246 10.9282C19.3101 10.8666 19.2784 10.8111 19.2337 10.7693L17.1996 8.86305V6.11554C17.1996 6.03269 17.1689 5.95323 17.1142 5.89464C17.0595 5.83606 16.9853 5.80315 16.9079 5.80315H15.6614C15.584 5.80315 15.5098 5.83606 15.4551 5.89464C15.4004 5.95323 15.3697 6.03269 15.3697 6.11554V7.14644L13.8895 5.7566C13.8364 5.70677 13.7681 5.67931 13.6975 5.67931C13.6268 5.67931 13.5586 5.70677 13.5054 5.7566L11.1741 7.94024V6.30391H11.6528C11.7121 6.30391 11.7701 6.28451 11.8188 6.24831C11.8676 6.21211 11.905 6.16082 11.9258 6.1013C11.9467 6.04178 11.9501 5.97686 11.9356 5.91521C11.9211 5.85356 11.8894 5.79812 11.8447 5.75629L9.81032 3.84974V1.10255C9.81032 1.01969 9.77959 0.940236 9.7249 0.881651C9.6702 0.823066 9.59601 0.790153 9.51866 0.790153H8.27267C8.19532 0.790153 8.12113 0.823066 8.06644 0.881651C8.01174 0.940236 7.98101 1.01969 7.98101 1.10255V2.13407L6.50082 0.743918C6.44765 0.694091 6.3794 0.666626 6.30876 0.666626C6.23811 0.666626 6.16986 0.694091 6.1167 0.743918L0.766715 5.75629C0.721946 5.7981 0.690165 5.85356 0.675623 5.91525C0.661081 5.97694 0.664471 6.04223 0.685341 6.10179ZM7.24164 12.3616H5.37354V10.1133C5.37369 9.8479 5.47216 9.59346 5.64731 9.40579C5.82247 9.21813 6.05999 9.11259 6.30774 9.11234C6.55543 9.11267 6.79288 9.21825 6.96797 9.4059C7.14306 9.59356 7.24149 9.84795 7.24164 10.1133V12.3616ZM12.7622 17.3752V15.1259C12.7622 14.5742 13.1811 14.1253 13.6964 14.1253C14.2118 14.1253 14.6306 14.5742 14.6306 15.1259V17.3752H12.7622ZM17.9784 17.3752H15.214V15.1259C15.214 14.2297 14.5332 13.5005 13.6964 13.5005C12.8597 13.5005 12.1789 14.2297 12.1789 15.1259V17.3752H9.41395V11.3169H17.9784V17.3752ZM13.6973 6.407L15.4695 8.07082C15.5116 8.11046 15.5635 8.13625 15.619 8.1451C15.6744 8.15396 15.7311 8.1455 15.7822 8.12075C15.8333 8.09599 15.8766 8.05598 15.907 8.00552C15.9374 7.95505 15.9536 7.89627 15.9536 7.83621V6.42793H16.6163V9.00519C16.6163 9.04973 16.6251 9.09376 16.6423 9.13433C16.6594 9.1749 16.6845 9.21107 16.7157 9.24042L18.2654 10.6921H9.12404L13.6973 6.407ZM10.5911 8.48755L8.15542 10.7696C8.11073 10.8114 8.07901 10.8669 8.06452 10.9285C8.05002 10.9902 8.05342 11.0551 8.07428 11.1146C8.09514 11.1741 8.13246 11.2254 8.18125 11.2616C8.23004 11.2978 8.28798 11.3172 8.34734 11.3172H8.83062V12.3616H7.82497V10.1133C7.82458 9.68232 7.66463 9.26916 7.38019 8.96439C7.09575 8.65961 6.71007 8.48813 6.30774 8.48755C5.90535 8.48805 5.51959 8.65949 5.23509 8.96427C4.95059 9.26905 4.7906 9.68227 4.79021 10.1133V12.3616H2.02612V6.30423H10.5911V8.48755ZM6.30861 1.3937L8.08076 3.05782C8.12299 3.09721 8.17489 3.12277 8.23029 3.13147C8.28569 3.14017 8.34226 3.13163 8.39327 3.10688C8.44427 3.08214 8.48757 3.04221 8.518 2.99187C8.54843 2.94153 8.56471 2.88288 8.56492 2.8229V1.41494H9.22699V3.99188C9.227 4.03644 9.2359 4.08049 9.2531 4.12106C9.27031 4.16163 9.29542 4.19779 9.32674 4.22712L10.8769 5.67975H1.73504L6.30832 1.39401L6.30861 1.3937Z" fill="#335F32"/>
<path d="M0.685341 6.10179C0.706241 6.16132 0.743605 6.2126 0.79244 6.24877C0.841275 6.28494 0.899254 6.30429 0.95863 6.30423H1.44279V12.6739C1.44279 12.7568 1.47352 12.8363 1.52822 12.8948C1.58291 12.9534 1.6571 12.9863 1.73445 12.9863C10.6322 12.9863 1.13071 12.9876 8.83062 12.9863V17.6876C8.83062 17.7704 8.86135 17.8499 8.91605 17.9085C8.97075 17.967 9.04493 18 9.12229 18H18.2703C18.3477 18 18.4218 17.967 18.4765 17.9085C18.5312 17.8499 18.562 17.7704 18.562 17.6876V11.3169H19.0418C19.1011 11.3169 19.1591 11.2975 19.2078 11.2613C19.2566 11.2251 19.294 11.1738 19.3148 11.1143C19.3357 11.0548 19.3391 10.9899 19.3246 10.9282C19.3101 10.8666 19.2784 10.8111 19.2337 10.7693L17.1996 8.86305V6.11554C17.1996 6.03269 17.1689 5.95323 17.1142 5.89464C17.0595 5.83606 16.9853 5.80315 16.9079 5.80315H15.6614C15.584 5.80315 15.5098 5.83606 15.4551 5.89464C15.4004 5.95323 15.3697 6.03269 15.3697 6.11554V7.14644L13.8895 5.7566C13.8364 5.70677 13.7681 5.67931 13.6975 5.67931C13.6268 5.67931 13.5586 5.70677 13.5054 5.7566L11.1741 7.94024V6.30391H11.6528C11.7121 6.30391 11.7701 6.28451 11.8188 6.24831C11.8676 6.21211 11.905 6.16082 11.9258 6.1013C11.9467 6.04178 11.9501 5.97686 11.9356 5.91521C11.9211 5.85356 11.8894 5.79812 11.8447 5.75629L9.81032 3.84974V1.10255C9.81032 1.01969 9.77959 0.940236 9.7249 0.881651C9.6702 0.823066 9.59601 0.790153 9.51866 0.790153H8.27267C8.19532 0.790153 8.12113 0.823066 8.06644 0.881651C8.01174 0.940236 7.98101 1.01969 7.98101 1.10255V2.13407L6.50082 0.743918C6.44765 0.694091 6.3794 0.666626 6.30876 0.666626C6.23811 0.666626 6.16986 0.694091 6.1167 0.743918L0.766715 5.75629C0.721946 5.7981 0.690165 5.85356 0.675623 5.91525C0.661081 5.97694 0.664471 6.04223 0.685341 6.10179ZM7.24164 12.3616H5.37354V10.1133C5.37369 9.8479 5.47216 9.59346 5.64731 9.40579C5.82247 9.21813 6.05999 9.11259 6.30774 9.11234C6.55543 9.11267 6.79288 9.21825 6.96797 9.4059C7.14306 9.59356 7.24149 9.84795 7.24164 10.1133V12.3616ZM12.7622 17.3752V15.1259C12.7622 14.5742 13.1811 14.1253 13.6964 14.1253C14.2118 14.1253 14.6306 14.5742 14.6306 15.1259V17.3752H12.7622ZM17.9784 17.3752H15.214V15.1259C15.214 14.2297 14.5332 13.5005 13.6964 13.5005C12.8597 13.5005 12.1789 14.2297 12.1789 15.1259V17.3752H9.41395V11.3169H17.9784V17.3752ZM13.6973 6.407L15.4695 8.07082C15.5116 8.11046 15.5635 8.13625 15.619 8.1451C15.6744 8.15396 15.7311 8.1455 15.7822 8.12075C15.8333 8.09599 15.8766 8.05598 15.907 8.00552C15.9374 7.95505 15.9536 7.89627 15.9536 7.83621V6.42793H16.6163V9.00519C16.6163 9.04973 16.6251 9.09376 16.6423 9.13433C16.6594 9.1749 16.6845 9.21107 16.7157 9.24042L18.2654 10.6921H9.12404L13.6973 6.407ZM10.5911 8.48755L8.15542 10.7696C8.11073 10.8114 8.07901 10.8669 8.06452 10.9285C8.05002 10.9902 8.05342 11.0551 8.07428 11.1146C8.09514 11.1741 8.13246 11.2254 8.18125 11.2616C8.23004 11.2978 8.28798 11.3172 8.34734 11.3172H8.83062V12.3616H7.82497V10.1133C7.82458 9.68232 7.66463 9.26916 7.38019 8.96439C7.09575 8.65961 6.71007 8.48813 6.30774 8.48755C5.90535 8.48805 5.51959 8.65949 5.23509 8.96427C4.95059 9.26905 4.7906 9.68227 4.79021 10.1133V12.3616H2.02612V6.30423H10.5911V8.48755ZM6.30861 1.3937L8.08076 3.05782C8.12299 3.09721 8.17489 3.12277 8.23029 3.13147C8.28569 3.14017 8.34226 3.13163 8.39327 3.10688C8.44427 3.08214 8.48757 3.04221 8.518 2.99187C8.54843 2.94153 8.56471 2.88288 8.56492 2.8229V1.41494H9.22699V3.99188C9.227 4.03644 9.2359 4.08049 9.2531 4.12106C9.27031 4.16163 9.29542 4.19779 9.32674 4.22712L10.8769 5.67975H1.73504L6.30832 1.39401L6.30861 1.3937Z" fill="black" fill-opacity="0.2"/>
</svg>
