<svg width="26" height="25" viewBox="0 0 26 25" fill="none" xmlns="http://www.w3.org/2000/svg">
<path fill-rule="evenodd" clip-rule="evenodd" d="M2.97055 7.19568C3.51843 7.19568 3.96258 7.63982 3.96258 8.18771V19.6623C3.96258 21.3523 5.33304 22.7229 7.02318 22.7229H18.7679C20.4581 22.7229 21.8285 21.3523 21.8285 19.6623V8.18771C21.8285 7.63982 22.2727 7.19568 22.8205 7.19568C23.3685 7.19568 23.8126 7.63982 23.8126 8.18771V19.6623C23.8126 22.4482 21.5539 24.707 18.7679 24.707H7.02318C4.23726 24.707 1.97852 22.4482 1.97852 19.6623V8.18771C1.97852 7.63982 2.42265 7.19568 2.97055 7.19568Z" fill="white"/>
<path fill-rule="evenodd" clip-rule="evenodd" d="M10.3315 1.09158C11.8349 -0.0969345 13.958 -0.0969345 15.4614 1.09158L25.4165 8.97204C25.8461 9.31209 25.9187 9.93595 25.5787 10.3656C25.2386 10.7952 24.6147 10.8678 24.1851 10.5277L14.231 2.64804C14.2307 2.6479 14.2311 2.64817 14.231 2.64804C13.4489 2.03011 12.3442 2.02979 11.5621 2.6479C11.5621 2.64794 11.5622 2.64784 11.5621 2.6479L1.60779 10.5277C1.17821 10.8678 0.554306 10.7952 0.214251 10.3656C-0.125804 9.93595 -0.0532405 9.31209 0.376349 8.97204L10.3315 1.09158Z" fill="white"/>
<path fill-rule="evenodd" clip-rule="evenodd" d="M14.2282 11.9561C13.2514 10.9793 11.6685 10.9793 10.6917 11.9561C9.71496 12.9328 9.71496 14.5156 10.6917 15.4925C11.6587 16.4594 13.2196 16.469 14.1984 15.5216C14.2081 15.5112 14.2179 15.5009 14.2279 15.4909C14.2379 15.481 14.2479 15.4713 14.2582 15.4619C15.2048 14.483 15.1948 12.9227 14.2282 11.9561ZM16.2552 16.1153C17.3494 14.3822 17.1413 12.0633 15.6311 10.5531C13.8795 8.80148 11.0403 8.80148 9.28878 10.5531C7.5372 12.3046 7.5372 15.1438 9.28878 16.8953C10.7995 18.4061 13.1194 18.6138 14.8525 17.5186L16.121 18.7869C16.5084 19.1744 17.1366 19.1744 17.524 18.7869C17.9114 18.3995 17.9114 17.7715 17.524 17.3841L16.2552 16.1153Z" fill="white"/>
</svg>
