<svg width="16" height="15" viewBox="0 0 16 15" fill="none" xmlns="http://www.w3.org/2000/svg">
<path d="M15.6497 4.7347L8.44449 0.131346C8.16929 -0.0437819 7.81903 -0.0437819 7.54383 0.131346L0.338577 4.7347C-0.0617153 4.98489 -0.111752 5.56031 0.213485 5.91056C0.463668 6.13573 0.838942 6.18576 1.13916 6.01063L1.33931 5.88554V13.8163C1.33931 14.2166 1.66454 14.5419 2.06484 14.5419H13.9235C14.3238 14.5419 14.649 14.2166 14.649 13.8163V5.86053L14.8492 5.98562C15.3495 6.31085 16 5.93558 16 5.36016C16 5.10998 15.8749 4.8598 15.6497 4.7347ZM12.6726 14.0415H9.34515V9.81341C9.34515 8.88773 10.0957 8.13719 11.0214 8.13719C11.947 8.13719 12.6976 8.88773 12.6976 9.81341V14.0415H12.6726ZM14.1737 13.7913C14.1737 13.9164 14.0736 14.0415 13.9235 14.0415H12.9228V9.81341C12.9228 8.76264 12.0721 7.91202 11.0214 7.91202C9.9706 7.91202 9.11998 8.76264 9.11998 9.81341V14.0415H2.06484C1.93974 14.0415 1.81465 13.9414 1.81465 13.7913V5.56031L7.86907 1.7075V3.23361C6.79328 3.28365 5.91765 4.1843 5.91765 5.28511C5.91765 6.41093 6.84332 7.3366 7.96914 7.3366C9.09496 7.3366 10.0206 6.41093 10.0206 5.28511C10.0206 4.20932 9.19504 3.28365 8.06921 3.23361V1.7075L14.1236 5.56031V13.7913H14.1737ZM9.09496 6.73616L8.34442 5.98562C8.49453 5.91056 8.61962 5.78547 8.69467 5.63536L9.47024 6.41093C9.34515 6.511 9.22006 6.61107 9.09496 6.73616ZM6.89336 3.80903L7.6439 4.55958C7.4938 4.63463 7.3687 4.75972 7.29365 4.90983L6.51808 4.13427C6.64318 4.03419 6.76827 3.93412 6.89336 3.80903ZM8.51954 5.26009C8.51954 5.56031 8.29438 5.78547 7.99416 5.78547C7.69394 5.78547 7.46878 5.56031 7.46878 5.26009C7.46878 4.95987 7.69394 4.7347 7.99416 4.7347C8.29438 4.7347 8.51954 4.98489 8.51954 5.26009ZM6.41801 4.38445L7.24361 5.21005C7.24361 5.23507 7.24361 5.23507 7.24361 5.26009C7.24361 5.28511 7.24361 5.28511 7.24361 5.31012L6.41801 6.13573C6.09277 5.61034 6.09277 4.93485 6.41801 4.38445ZM7.29365 5.61034C7.3687 5.76045 7.4938 5.88554 7.6439 5.9606L6.86834 6.73616C6.74325 6.63609 6.61816 6.511 6.51808 6.38591L7.29365 5.61034ZM7.94412 6.03565C7.96914 6.03565 7.96914 6.03565 7.99416 6.03565C8.01918 6.03565 8.01918 6.03565 8.0442 6.03565L8.8698 6.86126C8.61962 7.01136 8.29438 7.08642 7.99416 7.08642C7.66892 7.08642 7.3687 7.01136 7.11852 6.86126L7.94412 6.03565ZM9.59533 6.16074L8.74471 5.33514C8.74471 5.31012 8.74471 5.31012 8.74471 5.28511C8.74471 5.26009 8.74471 5.26009 8.74471 5.23507L9.57031 4.40947C9.72042 4.68467 9.79548 4.98489 9.79548 5.28511C9.82049 5.58532 9.72042 5.88554 9.59533 6.16074ZM8.69467 4.93485C8.61962 4.78474 8.49453 4.65965 8.34442 4.58459L9.11998 3.80903C9.27009 3.93412 9.37016 4.03419 9.47024 4.15928L8.69467 4.93485ZM8.0442 4.50954C8.01918 4.50954 8.01918 4.50954 7.99416 4.50954C7.96914 4.50954 7.96914 4.50954 7.94412 4.50954L7.11852 3.68394C7.3687 3.53383 7.69394 3.45877 7.99416 3.45877C8.3194 3.45877 8.61962 3.53383 8.8698 3.68394L8.0442 4.50954ZM15.1244 5.58532L8.11925 1.10706C8.06922 1.08204 8.0442 1.05702 7.99416 1.05702C7.94412 1.05702 7.89409 1.08204 7.86907 1.10706L0.86396 5.58532C0.763887 5.66038 0.638796 5.63536 0.538723 5.56031C0.413631 5.43521 0.43865 5.23507 0.588759 5.16001L7.79401 0.531638C7.91911 0.456583 8.06922 0.456583 8.16929 0.531638L15.3745 5.135C15.4496 5.18503 15.4996 5.26009 15.4996 5.36016C15.5247 5.58532 15.2745 5.6854 15.1244 5.58532Z" fill="black"/>
<path d="M11.5716 11.0394C11.5716 11.2646 11.7467 11.4397 11.9719 11.4397C12.197 11.4397 12.3722 11.2646 12.3722 11.0394C12.3722 10.8143 12.197 10.6391 11.9719 10.6391C11.7467 10.6391 11.5716 10.8143 11.5716 11.0394ZM12.097 11.0394C12.097 11.1145 12.0219 11.1895 11.9469 11.1895C11.8718 11.1895 11.7967 11.1145 11.7967 11.0394C11.7967 10.9644 11.8718 10.8893 11.9469 10.8893C12.0469 10.8893 12.097 10.9644 12.097 11.0394ZM7.3435 7.88713H2.99033C2.91527 7.88713 2.86523 7.93717 2.86523 8.01222V12.3654C2.86523 12.4405 2.91527 12.4905 2.99033 12.4905H7.3435C7.41856 12.4905 7.46859 12.4405 7.46859 12.3654V8.01222C7.44357 7.93717 7.39354 7.88713 7.3435 7.88713ZM7.21841 10.0637H5.292V8.13731H7.21841V10.0637ZM5.04182 8.13731V10.0637H3.11542V8.13731H5.04182ZM3.0904 10.3139H5.0168V12.2403H3.0904V10.3139ZM5.26699 12.2403V10.3139H7.19339V12.2403H5.26699Z" fill="black"/>
</svg>
