<svg width="13" height="12" viewBox="0 0 13 12" fill="none" xmlns="http://www.w3.org/2000/svg">
<path d="M12.5312 5.19796C12.441 5.19737 12.3531 5.1686 12.28 5.11566L6.46695 0.965954L0.653899 5.11566C0.56064 5.17089 0.450062 5.18915 0.343995 5.16684C0.237929 5.14453 0.144081 5.08326 0.080979 4.99514C0.0178769 4.90701 -0.00989398 4.79843 0.00314878 4.69083C0.0161915 4.58323 0.0691 4.48443 0.15143 4.41393L6.21571 0.082301C6.28907 0.0300684 6.37689 0.0019997 6.46695 0.0019997C6.557 0.0019997 6.64482 0.0300684 6.71818 0.082301L12.7825 4.41393C12.8564 4.46747 12.9116 4.54301 12.94 4.62976C12.9685 4.71651 12.9688 4.81004 12.941 4.89699C12.9131 4.98393 12.8585 5.05985 12.7849 5.1139C12.7113 5.16795 12.6225 5.19737 12.5312 5.19796ZM1.70215 2.59898C1.58727 2.59898 1.47709 2.55334 1.39586 2.47211C1.31463 2.39087 1.26899 2.2807 1.26899 2.16582V0.433163C1.26899 0.318281 1.31463 0.208104 1.39586 0.126871C1.47709 0.0456367 1.58727 0 1.70215 0H3.43481C3.54969 0 3.65986 0.0456367 3.7411 0.126871C3.82233 0.208104 3.86797 0.318281 3.86797 0.433163C3.86797 0.548045 3.82233 0.658222 3.7411 0.739456C3.65986 0.820689 3.54969 0.866326 3.43481 0.866326H2.13532V2.16582C2.13532 2.2807 2.08968 2.39087 2.00845 2.47211C1.92721 2.55334 1.81704 2.59898 1.70215 2.59898Z" fill="#335F32"/>
<path d="M12.5312 5.19796C12.441 5.19737 12.3531 5.1686 12.28 5.11566L6.46695 0.965954L0.653899 5.11566C0.56064 5.17089 0.450062 5.18915 0.343995 5.16684C0.237929 5.14453 0.144081 5.08326 0.080979 4.99514C0.0178769 4.90701 -0.00989398 4.79843 0.00314878 4.69083C0.0161915 4.58323 0.0691 4.48443 0.15143 4.41393L6.21571 0.082301C6.28907 0.0300684 6.37689 0.0019997 6.46695 0.0019997C6.557 0.0019997 6.64482 0.0300684 6.71818 0.082301L12.7825 4.41393C12.8564 4.46747 12.9116 4.54301 12.94 4.62976C12.9685 4.71651 12.9688 4.81004 12.941 4.89699C12.9131 4.98393 12.8585 5.05985 12.7849 5.1139C12.7113 5.16795 12.6225 5.19737 12.5312 5.19796ZM1.70215 2.59898C1.58727 2.59898 1.47709 2.55334 1.39586 2.47211C1.31463 2.39087 1.26899 2.2807 1.26899 2.16582V0.433163C1.26899 0.318281 1.31463 0.208104 1.39586 0.126871C1.47709 0.0456367 1.58727 0 1.70215 0H3.43481C3.54969 0 3.65986 0.0456367 3.7411 0.126871C3.82233 0.208104 3.86797 0.318281 3.86797 0.433163C3.86797 0.548045 3.82233 0.658222 3.7411 0.739456C3.65986 0.820689 3.54969 0.866326 3.43481 0.866326H2.13532V2.16582C2.13532 2.2807 2.08968 2.39087 2.00845 2.47211C1.92721 2.55334 1.81704 2.59898 1.70215 2.59898Z" fill="black" fill-opacity="0.2"/>
<path d="M10.3655 11.2623H8.19965C8.08477 11.2623 7.97459 11.2166 7.89336 11.1354C7.81213 11.0542 7.76649 10.944 7.76649 10.8291V7.79698H5.16751V10.8291C5.16751 10.944 5.12187 11.0542 5.04064 11.1354C4.95941 11.2166 4.84923 11.2623 4.73435 11.2623H2.56853C2.22389 11.2623 1.89336 11.1254 1.64965 10.8817C1.40595 10.638 1.26904 10.3074 1.26904 9.96279V5.63116C1.26904 5.51628 1.31468 5.4061 1.39591 5.32487C1.47715 5.24363 1.58732 5.198 1.70221 5.198C1.81709 5.198 1.92726 5.24363 2.0085 5.32487C2.08973 5.4061 2.13537 5.51628 2.13537 5.63116V9.96279C2.13537 10.0777 2.18101 10.1879 2.26224 10.2691C2.34347 10.3503 2.45365 10.396 2.56853 10.396H4.30118V7.36381C4.30118 7.24893 4.34682 7.13875 4.42806 7.05752C4.50929 6.97629 4.61947 6.93065 4.73435 6.93065H8.19965C8.31453 6.93065 8.42471 6.97629 8.50595 7.05752C8.58718 7.13875 8.63282 7.24893 8.63282 7.36381V10.396H10.3655C10.4803 10.396 10.5905 10.3503 10.6718 10.2691C10.753 10.1879 10.7986 10.0777 10.7986 9.96279V5.63116C10.7986 5.51628 10.8443 5.4061 10.9255 5.32487C11.0067 5.24363 11.1169 5.198 11.2318 5.198C11.3467 5.198 11.4569 5.24363 11.5381 5.32487C11.6193 5.4061 11.665 5.51628 11.665 5.63116V9.96279C11.665 10.3074 11.528 10.638 11.2843 10.8817C11.0406 11.1254 10.7101 11.2623 10.3655 11.2623Z" fill="#335F32"/>
<path d="M10.3655 11.2623H8.19965C8.08477 11.2623 7.97459 11.2166 7.89336 11.1354C7.81213 11.0542 7.76649 10.944 7.76649 10.8291V7.79698H5.16751V10.8291C5.16751 10.944 5.12187 11.0542 5.04064 11.1354C4.95941 11.2166 4.84923 11.2623 4.73435 11.2623H2.56853C2.22389 11.2623 1.89336 11.1254 1.64965 10.8817C1.40595 10.638 1.26904 10.3074 1.26904 9.96279V5.63116C1.26904 5.51628 1.31468 5.4061 1.39591 5.32487C1.47715 5.24363 1.58732 5.198 1.70221 5.198C1.81709 5.198 1.92726 5.24363 2.0085 5.32487C2.08973 5.4061 2.13537 5.51628 2.13537 5.63116V9.96279C2.13537 10.0777 2.18101 10.1879 2.26224 10.2691C2.34347 10.3503 2.45365 10.396 2.56853 10.396H4.30118V7.36381C4.30118 7.24893 4.34682 7.13875 4.42806 7.05752C4.50929 6.97629 4.61947 6.93065 4.73435 6.93065H8.19965C8.31453 6.93065 8.42471 6.97629 8.50595 7.05752C8.58718 7.13875 8.63282 7.24893 8.63282 7.36381V10.396H10.3655C10.4803 10.396 10.5905 10.3503 10.6718 10.2691C10.753 10.1879 10.7986 10.0777 10.7986 9.96279V5.63116C10.7986 5.51628 10.8443 5.4061 10.9255 5.32487C11.0067 5.24363 11.1169 5.198 11.2318 5.198C11.3467 5.198 11.4569 5.24363 11.5381 5.32487C11.6193 5.4061 11.665 5.51628 11.665 5.63116V9.96279C11.665 10.3074 11.528 10.638 11.2843 10.8817C11.0406 11.1254 10.7101 11.2623 10.3655 11.2623Z" fill="black" fill-opacity="0.2"/>
</svg>
