<svg width="18" height="19" viewBox="0 0 18 19" fill="none" xmlns="http://www.w3.org/2000/svg">
<path fill-rule="evenodd" clip-rule="evenodd" d="M17.7472 2.04906C17.7472 1.62074 17.5968 1.20931 17.3296 0.905882C17.0618 0.603136 16.6989 0.433 16.3206 0.432739H2.31382C1.93577 0.432739 1.57263 0.603188 1.30482 0.905882C1.0376 1.20934 0.887437 1.62041 0.887207 2.04906V12.0409C0.887207 12.4692 1.03765 12.8806 1.30482 13.1841C1.57263 13.4868 1.93577 13.6572 2.31382 13.6572H16.3206C16.6986 13.6572 17.0618 13.4868 17.3296 13.1841C17.5968 12.8806 17.7472 12.4692 17.7472 12.0409V2.04906ZM16.4503 2.04906V12.0409C16.4503 12.0602 16.447 12.0793 16.4404 12.0971C16.4338 12.1149 16.4242 12.131 16.412 12.1445C16.4001 12.1582 16.3859 12.1692 16.3702 12.1766C16.3545 12.1841 16.3376 12.1879 16.3206 12.1878H2.31382C2.2968 12.1879 2.27995 12.1841 2.26424 12.1766C2.24854 12.1692 2.23431 12.1582 2.22239 12.1445C2.21024 12.131 2.2006 12.1149 2.19403 12.0971C2.18746 12.0793 2.18409 12.0602 2.18413 12.0409V2.04906C2.18413 2.01013 2.19775 1.97266 2.22239 1.94547C2.23431 1.93171 2.24854 1.92079 2.26424 1.91334C2.27995 1.9059 2.2968 1.90209 2.31382 1.90213H16.3206C16.355 1.90213 16.388 1.91755 16.412 1.94547C16.4242 1.95898 16.4338 1.9751 16.4404 1.99289C16.447 2.01068 16.4503 2.02978 16.4503 2.04906Z" fill="#335F32"/>
<path fill-rule="evenodd" clip-rule="evenodd" d="M17.7472 2.04906C17.7472 1.62074 17.5968 1.20931 17.3296 0.905882C17.0618 0.603136 16.6989 0.433 16.3206 0.432739H2.31382C1.93577 0.432739 1.57263 0.603188 1.30482 0.905882C1.0376 1.20934 0.887437 1.62041 0.887207 2.04906V12.0409C0.887207 12.4692 1.03765 12.8806 1.30482 13.1841C1.57263 13.4868 1.93577 13.6572 2.31382 13.6572H16.3206C16.6986 13.6572 17.0618 13.4868 17.3296 13.1841C17.5968 12.8806 17.7472 12.4692 17.7472 12.0409V2.04906ZM16.4503 2.04906V12.0409C16.4503 12.0602 16.447 12.0793 16.4404 12.0971C16.4338 12.1149 16.4242 12.131 16.412 12.1445C16.4001 12.1582 16.3859 12.1692 16.3702 12.1766C16.3545 12.1841 16.3376 12.1879 16.3206 12.1878H2.31382C2.2968 12.1879 2.27995 12.1841 2.26424 12.1766C2.24854 12.1692 2.23431 12.1582 2.22239 12.1445C2.21024 12.131 2.2006 12.1149 2.19403 12.0971C2.18746 12.0793 2.18409 12.0602 2.18413 12.0409V2.04906C2.18413 2.01013 2.19775 1.97266 2.22239 1.94547C2.23431 1.93171 2.24854 1.92079 2.26424 1.91334C2.27995 1.9059 2.2968 1.90209 2.31382 1.90213H16.3206C16.355 1.90213 16.388 1.91755 16.412 1.94547C16.4242 1.95898 16.4338 1.9751 16.4404 1.99289C16.447 2.01068 16.4503 2.02978 16.4503 2.04906Z" fill="black" fill-opacity="0.2"/>
<path fill-rule="evenodd" clip-rule="evenodd" d="M12.3215 5.42136C11.295 4.83948 10.0065 4.10919 9.04421 3.56552C8.79969 3.42722 8.52804 3.36199 8.25503 3.37601C7.98201 3.39003 7.71669 3.48283 7.48421 3.64562C7.25174 3.80841 7.05982 4.03578 6.92666 4.30618C6.79351 4.57657 6.72353 4.88103 6.72336 5.19066V8.90233C6.72347 9.21207 6.79344 9.51663 6.92663 9.78712C7.05982 10.0576 7.25181 10.2851 7.48438 10.4479C7.71695 10.6107 7.98238 10.7034 8.25549 10.7174C8.52859 10.7313 8.80031 10.6659 9.04485 10.5275C10.0072 9.9838 11.295 9.25352 12.3222 8.67164C12.5884 8.52056 12.8122 8.28853 12.9687 8.00151C13.1251 7.7145 13.208 7.38383 13.208 7.0465C13.208 6.70917 13.1251 6.37849 12.9687 6.09148C12.8122 5.80447 12.5884 5.57244 12.3222 5.42136H12.3215ZM8.46448 4.87842L11.7418 6.73572C11.7929 6.7644 11.836 6.80869 11.8661 6.8636C11.8961 6.91852 11.9121 6.98186 11.9121 7.0465C11.9121 7.11113 11.8961 7.17448 11.8661 7.22939C11.836 7.2843 11.7929 7.3286 11.7418 7.35727L8.46448 9.21458C8.41762 9.24082 8.36562 9.25308 8.31341 9.25021C8.26119 9.24734 8.21049 9.22943 8.16608 9.19817C8.12168 9.16691 8.08505 9.12334 8.05965 9.07157C8.03425 9.01981 8.02093 8.96156 8.02093 8.90233V5.19066C8.02093 5.13144 8.03425 5.07319 8.05965 5.02142C8.08505 4.96965 8.12168 4.92608 8.16608 4.89482C8.21049 4.86357 8.26119 4.84566 8.31341 4.84279C8.36562 4.83991 8.41762 4.85218 8.46448 4.87842ZM10.6141 15.8613H1.53567C1.36369 15.8613 1.19875 15.9387 1.07714 16.0765C0.955527 16.2143 0.887207 16.4012 0.887207 16.596C0.887207 16.7909 0.955527 16.9778 1.07714 17.1155C1.19875 17.2533 1.36369 17.3307 1.53567 17.3307H10.6141V17.6981C10.6141 17.8929 10.6825 18.0798 10.8041 18.2176C10.9257 18.3554 11.0906 18.4328 11.2626 18.4328C11.4346 18.4328 11.5995 18.3554 11.7211 18.2176C11.8427 18.0798 11.9111 17.8929 11.9111 17.6981V17.3307H17.0987C17.2707 17.3307 17.4357 17.2533 17.5573 17.1155C17.6789 16.9778 17.7472 16.7909 17.7472 16.596C17.7472 16.4012 17.6789 16.2143 17.5573 16.0765C17.4357 15.9387 17.2707 15.8613 17.0987 15.8613H11.9111V15.494C11.9111 15.2991 11.8427 15.1123 11.7211 14.9745C11.5995 14.8367 11.4346 14.7593 11.2626 14.7593C11.0906 14.7593 10.9257 14.8367 10.8041 14.9745C10.6825 15.1123 10.6141 15.2991 10.6141 15.494V15.8613Z" fill="#335F32"/>
<path fill-rule="evenodd" clip-rule="evenodd" d="M12.3215 5.42136C11.295 4.83948 10.0065 4.10919 9.04421 3.56552C8.79969 3.42722 8.52804 3.36199 8.25503 3.37601C7.98201 3.39003 7.71669 3.48283 7.48421 3.64562C7.25174 3.80841 7.05982 4.03578 6.92666 4.30618C6.79351 4.57657 6.72353 4.88103 6.72336 5.19066V8.90233C6.72347 9.21207 6.79344 9.51663 6.92663 9.78712C7.05982 10.0576 7.25181 10.2851 7.48438 10.4479C7.71695 10.6107 7.98238 10.7034 8.25549 10.7174C8.52859 10.7313 8.80031 10.6659 9.04485 10.5275C10.0072 9.9838 11.295 9.25352 12.3222 8.67164C12.5884 8.52056 12.8122 8.28853 12.9687 8.00151C13.1251 7.7145 13.208 7.38383 13.208 7.0465C13.208 6.70917 13.1251 6.37849 12.9687 6.09148C12.8122 5.80447 12.5884 5.57244 12.3222 5.42136H12.3215ZM8.46448 4.87842L11.7418 6.73572C11.7929 6.7644 11.836 6.80869 11.8661 6.8636C11.8961 6.91852 11.9121 6.98186 11.9121 7.0465C11.9121 7.11113 11.8961 7.17448 11.8661 7.22939C11.836 7.2843 11.7929 7.3286 11.7418 7.35727L8.46448 9.21458C8.41762 9.24082 8.36562 9.25308 8.31341 9.25021C8.26119 9.24734 8.21049 9.22943 8.16608 9.19817C8.12168 9.16691 8.08505 9.12334 8.05965 9.07157C8.03425 9.01981 8.02093 8.96156 8.02093 8.90233V5.19066C8.02093 5.13144 8.03425 5.07319 8.05965 5.02142C8.08505 4.96965 8.12168 4.92608 8.16608 4.89482C8.21049 4.86357 8.26119 4.84566 8.31341 4.84279C8.36562 4.83991 8.41762 4.85218 8.46448 4.87842ZM10.6141 15.8613H1.53567C1.36369 15.8613 1.19875 15.9387 1.07714 16.0765C0.955527 16.2143 0.887207 16.4012 0.887207 16.596C0.887207 16.7909 0.955527 16.9778 1.07714 17.1155C1.19875 17.2533 1.36369 17.3307 1.53567 17.3307H10.6141V17.6981C10.6141 17.8929 10.6825 18.0798 10.8041 18.2176C10.9257 18.3554 11.0906 18.4328 11.2626 18.4328C11.4346 18.4328 11.5995 18.3554 11.7211 18.2176C11.8427 18.0798 11.9111 17.8929 11.9111 17.6981V17.3307H17.0987C17.2707 17.3307 17.4357 17.2533 17.5573 17.1155C17.6789 16.9778 17.7472 16.7909 17.7472 16.596C17.7472 16.4012 17.6789 16.2143 17.5573 16.0765C17.4357 15.9387 17.2707 15.8613 17.0987 15.8613H11.9111V15.494C11.9111 15.2991 11.8427 15.1123 11.7211 14.9745C11.5995 14.8367 11.4346 14.7593 11.2626 14.7593C11.0906 14.7593 10.9257 14.8367 10.8041 14.9745C10.6825 15.1123 10.6141 15.2991 10.6141 15.494V15.8613Z" fill="black" fill-opacity="0.2"/>
</svg>
