<svg width="24" height="30" viewBox="0 0 24 30" fill="none" xmlns="http://www.w3.org/2000/svg">
<path d="M20.6513 16.9901H17.1909C17.1204 16.9901 17.0505 17.0034 16.9853 17.0295C16.9202 17.0555 16.861 17.0936 16.8111 17.1417C16.7612 17.1898 16.7217 17.2469 16.6947 17.3098C16.6677 17.3726 16.6539 17.44 16.6539 17.508V20.845C16.6513 21.4569 16.5195 22.0619 16.2666 22.623C16.0136 23.1842 15.6448 23.6897 15.1826 24.1089C14.7203 24.5281 14.1744 24.8521 13.5781 25.0612C12.9818 25.2702 12.3476 25.36 11.7142 25.3249C10.5061 25.2276 9.38196 24.6901 8.57046 23.8216C7.75895 22.9532 7.32112 21.8191 7.34609 20.6503V17.5079C7.34614 17.4399 7.33228 17.3726 7.30531 17.3097C7.27834 17.2469 7.23878 17.1898 7.18891 17.1417C7.13904 17.0936 7.07982 17.0554 7.01465 17.0294C6.94948 17.0034 6.87963 16.9901 6.8091 16.9901H3.34871C3.27818 16.9901 3.20833 17.0034 3.14316 17.0294C3.07799 17.0554 3.01877 17.0936 2.9689 17.1417C2.91902 17.1898 2.87947 17.2469 2.8525 17.3097C2.82553 17.3726 2.81167 17.4399 2.81171 17.5079V20.845C2.80694 22.0419 3.05584 23.2272 3.54313 24.328C4.03043 25.4288 4.74585 26.422 5.64548 27.2466C11.499 32.6888 21.2656 28.4989 21.1882 20.5839L21.1883 17.5079C21.1883 17.4399 21.1744 17.3726 21.1475 17.3097C21.1205 17.2469 21.0809 17.1898 21.0311 17.1417C20.9812 17.0936 20.922 17.0555 20.8568 17.0295C20.7917 17.0034 20.7218 16.9901 20.6513 16.9901ZM17.7278 18.0258H20.1143V18.6584H17.7278V18.0258ZM3.88569 18.0258H6.27216V18.6584H3.88569V18.0258ZM12.3634 28.6626C7.10337 28.8351 3.4336 24.6426 3.88575 19.6941H6.27215C5.95566 23.087 8.1229 26.1231 11.6503 26.3586C12.4296 26.4007 13.2096 26.2895 13.9429 26.0318C14.6762 25.7741 15.3475 25.3753 15.916 24.8595C16.4845 24.3438 16.9382 23.722 17.2497 23.0318C17.5612 22.3417 17.7238 21.5976 17.7278 20.845L17.7278 19.6941H20.1143C20.5184 24.2356 17.0111 28.4968 12.3634 28.6626ZM11.0231 10.2335V9.14778C11.0236 8.59853 10.8446 8.06311 10.5115 7.61756C10.1785 7.17201 9.70829 6.839 9.1678 6.66582L7.42422 6.10498C9.75819 4.42173 8.46513 0.675598 5.51118 0.707234C2.55703 0.677841 1.26363 4.41987 3.59881 6.10526L1.85527 6.66582C1.31478 6.839 0.84462 7.17201 0.511572 7.61756C0.178523 8.06311 -0.000476521 8.59853 9.5275e-07 9.14778V10.2335C0.000271121 10.5299 0.122455 10.814 0.339729 11.0235C0.557004 11.233 0.851615 11.3509 1.15889 11.3511H9.86419C10.1715 11.3509 10.4661 11.233 10.6833 11.0235C10.9006 10.814 11.0228 10.5299 11.0231 10.2335ZM5.51127 1.74287C8.21975 1.8113 8.21922 5.63642 5.51121 5.70448C2.8028 5.63603 2.80333 1.81092 5.51127 1.74287ZM1.07394 10.2335V9.14778C1.07366 8.81586 1.18182 8.4923 1.38308 8.22305C1.58434 7.9538 1.86846 7.75254 2.19507 7.64787L4.55113 6.89084C5.76527 6.38433 7.66987 7.33317 8.828 7.64787C9.15462 7.75254 9.43873 7.95379 9.63999 8.22304C9.84124 8.49229 9.94941 8.81585 9.94913 9.14776V10.2335C9.94905 10.2552 9.94007 10.276 9.92416 10.2914C9.90825 10.3067 9.88669 10.3154 9.86419 10.3155H1.15889C1.13638 10.3154 1.11483 10.3067 1.09891 10.2914C1.083 10.276 1.07402 10.2552 1.07394 10.2335ZM22.1447 6.66582L20.4016 6.10498C20.918 5.72056 21.2966 5.18992 21.4844 4.58747C21.6722 3.98503 21.6598 3.34101 21.4488 2.74574C21.2378 2.15047 20.839 1.6338 20.3081 1.26822C19.7773 0.902627 19.141 0.706452 18.4887 0.707203C15.5345 0.677841 14.2411 4.4198 16.5762 6.10523L14.8322 6.66582C14.2917 6.839 13.8215 7.17201 13.4885 7.61756C13.1554 8.06311 12.9764 8.59853 12.9769 9.14778V10.2335C12.9772 10.5299 13.0994 10.814 13.3167 11.0235C13.5339 11.233 13.8285 11.3509 14.1358 11.3511H22.8411C23.1484 11.3509 23.443 11.233 23.6603 11.0235C23.8775 10.814 23.9997 10.5299 24 10.2335V9.14778C24.0005 8.59853 23.8215 8.06311 23.4884 7.61756C23.1554 7.17201 22.6852 6.839 22.1447 6.66582ZM18.4887 1.74287C21.1972 1.8113 21.1967 5.63642 18.4887 5.70448C15.7803 5.63603 15.7808 1.81092 18.4887 1.74287ZM22.9261 10.2335C22.926 10.2552 22.917 10.276 22.9011 10.2914C22.8852 10.3067 22.8636 10.3154 22.8411 10.3155H14.1358C14.1133 10.3154 14.0918 10.3067 14.0758 10.2914C14.0599 10.276 14.051 10.2552 14.0509 10.2335V9.14778C14.0506 8.81586 14.1588 8.4923 14.36 8.22304C14.5613 7.95379 14.8454 7.75254 15.172 7.64787C16.3389 7.33172 18.2275 6.38575 19.4489 6.89037L21.8049 7.64787C22.1315 7.75254 22.4157 7.95379 22.6169 8.22304C22.8182 8.49229 22.9263 8.81585 22.9261 9.14776V10.2335ZM2.81175 12.5021V15.8391C2.81445 15.9747 2.87222 16.1039 2.97263 16.1989C3.07304 16.2939 3.20808 16.3471 3.34873 16.3471C3.48938 16.3471 3.62442 16.2939 3.72482 16.1989C3.82523 16.1039 3.88298 15.9747 3.88569 15.8391V12.502C3.88298 12.3664 3.82521 12.2372 3.7248 12.1423C3.62439 12.0473 3.48935 11.9941 3.3487 11.9941C3.20805 11.9941 3.07301 12.0473 2.97261 12.1423C2.8722 12.2373 2.81445 12.3665 2.81175 12.5021ZM4.54169 14.1704V15.8392C4.54102 15.9076 4.55441 15.9754 4.58109 16.0388C4.60777 16.1022 4.64722 16.1599 4.69715 16.2085C4.74708 16.2571 4.8065 16.2957 4.87198 16.322C4.93747 16.3484 5.00771 16.3619 5.07866 16.3619C5.14961 16.3619 5.21985 16.3484 5.28533 16.322C5.35082 16.2957 5.41024 16.2571 5.46017 16.2085C5.5101 16.1599 5.54954 16.1022 5.57623 16.0388C5.60291 15.9754 5.6163 15.9076 5.61563 15.8392V14.1704C5.61292 14.0347 5.55516 13.9056 5.45475 13.8106C5.35435 13.7156 5.21931 13.6624 5.07866 13.6624C4.93801 13.6624 4.80297 13.7156 4.70256 13.8106C4.60216 13.9056 4.54439 14.0347 4.54169 14.1704ZM19.4583 15.8392V14.1704C19.457 14.0339 19.3998 13.9034 19.2992 13.8074C19.1987 13.7113 19.0629 13.6574 18.9213 13.6574C18.7798 13.6574 18.644 13.7113 18.5434 13.8074C18.4429 13.9034 18.3857 14.0339 18.3844 14.1704V15.8392C18.3871 15.9748 18.4448 16.1039 18.5452 16.1989C18.6457 16.2939 18.7807 16.3471 18.9213 16.3471C19.062 16.3471 19.197 16.2939 19.2974 16.1989C19.3978 16.1039 19.4556 15.9748 19.4583 15.8392ZM20.6513 11.9842C20.5807 11.9842 20.5109 11.9976 20.4457 12.0236C20.3806 12.0496 20.3213 12.0877 20.2715 12.1358C20.2216 12.1839 20.182 12.241 20.1551 12.3039C20.1281 12.3667 20.1142 12.4341 20.1143 12.5021V15.8392C20.1136 15.9076 20.127 15.9754 20.1537 16.0388C20.1804 16.1022 20.2198 16.1599 20.2697 16.2085C20.3197 16.2571 20.3791 16.2957 20.4446 16.322C20.5101 16.3484 20.5803 16.3619 20.6513 16.3619C20.7222 16.3619 20.7924 16.3484 20.8579 16.322C20.9234 16.2957 20.9828 16.2571 21.0328 16.2085C21.0827 16.1599 21.1221 16.1022 21.1488 16.0388C21.1755 15.9754 21.1889 15.9076 21.1882 15.8392V12.5021C21.1883 12.4341 21.1744 12.3667 21.1474 12.3039C21.1205 12.241 21.0809 12.1839 21.0311 12.1358C20.9812 12.0877 20.922 12.0496 20.8568 12.0236C20.7917 11.9976 20.7218 11.9842 20.6513 11.9842Z" fill="white"/>
</svg>
