<svg width="38" height="39" viewBox="0 0 38 39" fill="none" xmlns="http://www.w3.org/2000/svg">
<path d="M18.583 3.42016C19.1764 3.42164 19.7561 3.59935 20.2483 3.93075L32.3147 11.9785C32.7817 12.2981 33.1623 12.7283 33.4226 13.2308C33.6829 13.7332 33.8148 14.2923 33.8065 14.8581L33.7907 30.4024C33.7888 32.2676 32.3724 33.7852 30.6332 33.7852H6.57816C6.1769 33.7834 5.77999 33.7019 5.41044 33.5456C5.04088 33.3893 4.70602 33.1612 4.42526 32.8745C4.10209 32.5482 3.84689 32.1611 3.67445 31.7355C3.502 31.3099 3.41573 30.8543 3.42065 30.3951L3.43643 14.8443C3.42955 14.2811 3.56142 13.725 3.82041 13.2249C4.07939 12.7248 4.45753 12.2961 4.92144 11.9767L16.9101 3.93522C17.404 3.60086 17.9866 3.42157 18.583 3.42016ZM18.5827 0C17.3076 0.00127046 16.0618 0.38252 15.0044 1.09506L3.01567 9.13653C2.08712 9.76951 1.32806 10.6206 0.805046 11.6151C0.282028 12.6097 0.0110226 13.7173 0.0157911 14.8409L3.65052e-06 30.3918C-0.00378537 34.1537 2.94249 39 6.57816 39L30.6332 35.9684C34.2635 35.9684 37.2075 34.1624 37.2113 30.406L37.2271 14.8617C37.2343 13.7327 36.9629 12.6194 36.4372 11.6203C35.9115 10.6212 35.1475 9.76708 34.2129 9.1335L22.1466 1.0858C21.0923 0.379132 19.8519 0.00118854 18.5827 0Z" fill="#346633"/>
<path d="M21.2889 27.7079C20.177 27.977 19.0969 28.0347 18.0487 27.881C16.997 27.713 16.0231 27.3678 15.127 26.8452C14.2275 26.3084 13.4589 25.6267 12.8213 24.8002C12.1944 23.956 11.7499 22.9922 11.4877 21.9088C11.2255 20.8254 11.1818 19.7721 11.3567 18.7489C11.5424 17.708 11.9071 16.7521 12.4508 15.8811C12.991 14.9958 13.6921 14.2452 14.5541 13.6291C15.4268 12.9954 16.412 12.5457 17.5096 12.28C18.7498 11.9798 19.9791 11.9464 21.1975 12.1797C22.4125 12.3987 23.4833 12.8639 24.4099 13.5752L22.7316 16.0864C22.0631 15.5692 21.34 15.2311 20.5621 15.0723C19.7843 14.9135 18.9962 14.9307 18.1979 15.1239C17.5279 15.2861 16.9389 15.5644 16.4308 15.959C15.9192 16.3394 15.5031 16.8022 15.1824 17.3477C14.8583 17.8788 14.6475 18.4731 14.55 19.1304C14.4634 19.7701 14.5046 20.4392 14.6737 21.1377C14.8427 21.8362 15.1209 22.4555 15.5081 22.9955C15.8954 23.5356 16.3563 23.9748 16.8909 24.3132C17.4363 24.6339 18.0252 24.8536 18.6575 24.9722C19.3006 25.073 19.9643 25.0407 20.6485 24.8751C21.3613 24.7026 21.9717 24.419 22.4798 24.0244C22.9845 23.6156 23.3723 23.1294 23.6433 22.5658C23.9252 21.9845 24.0578 21.379 24.0412 20.7492L19.615 21.8205L18.9629 19.1263L26.7034 17.2529L26.9311 18.1937C27.2002 19.3056 27.2562 20.3785 27.099 21.4125C26.9526 22.4288 26.629 23.3673 26.1281 24.2279C25.6237 25.0743 24.9619 25.8004 24.1427 26.4061C23.3235 27.0118 22.3723 27.4457 21.2889 27.7079Z" fill="#346633"/>
</svg>
