<svg width="15" height="15" viewBox="0 0 15 15" fill="none" xmlns="http://www.w3.org/2000/svg">
<path d="M7.05564 6.74997L8.78104 5.03248C8.85135 4.96275 8.90716 4.8798 8.94525 4.78841C8.98333 4.69702 9.00294 4.59899 9.00294 4.49998C9.00294 4.40097 8.98333 4.30294 8.94525 4.21155C8.90716 4.12015 8.85135 4.0372 8.78104 3.96748C8.7113 3.89719 8.62833 3.84139 8.53692 3.80331C8.4455 3.76524 8.34745 3.74563 8.24842 3.74563C8.14938 3.74563 8.05133 3.76524 7.95992 3.80331C7.8685 3.84139 7.78553 3.89719 7.71579 3.96748L4.71509 6.96747C4.64679 7.03879 4.59325 7.1229 4.55755 7.21496C4.48252 7.39756 4.48252 7.60237 4.55755 7.78496C4.59325 7.87702 4.64679 7.96113 4.71509 8.03246L7.71579 11.0324C7.78574 11.1024 7.86877 11.1578 7.96016 11.1957C8.05155 11.2335 8.1495 11.253 8.24842 11.253C8.34733 11.253 8.44528 11.2335 8.53667 11.1957C8.62806 11.1578 8.71109 11.1024 8.78104 11.0324C8.85099 10.9625 8.90647 10.8795 8.94432 10.7881C8.98218 10.6968 9.00166 10.5988 9.00166 10.4999C9.00166 10.4011 8.98218 10.3031 8.94432 10.2118C8.90647 10.1204 8.85099 10.0374 8.78104 9.96745L7.05564 8.24996L14.2498 8.24996C14.4488 8.24996 14.6396 8.17094 14.7803 8.03029C14.921 7.88964 15 7.69887 15 7.49996C15 7.30105 14.921 7.11029 14.7803 6.96964C14.6396 6.82898 14.4488 6.74997 14.2498 6.74997L7.05564 6.74997ZM7.49824 14.9999C8.90025 15.0062 10.276 14.6195 11.4693 13.8838C12.6627 13.1481 13.6259 12.0927 14.2498 10.8374C14.3394 10.6584 14.3541 10.4512 14.2908 10.2613C14.2275 10.0714 14.0913 9.91446 13.9122 9.82495C13.7332 9.73544 13.5259 9.72071 13.336 9.78401C13.146 9.8473 12.989 9.98343 12.8995 10.1624C12.4253 11.12 11.7039 11.9335 10.8099 12.5189C9.91586 13.1044 8.8817 13.4406 7.81425 13.4927C6.7468 13.5449 5.68478 13.3111 4.73795 12.8156C3.79112 12.32 2.99383 11.5807 2.42847 10.674C1.8631 9.76723 1.55018 8.72602 1.52204 7.65792C1.49389 6.58983 1.75155 5.53359 2.26838 4.59837C2.7852 3.66315 3.54245 2.88287 4.46187 2.33817C5.38129 1.79347 6.42952 1.50411 7.49824 1.49999C8.61684 1.49515 9.71414 1.80572 10.6642 2.39605C11.6143 2.98639 12.3786 3.83257 12.8695 4.83748C12.959 5.0165 13.116 5.15263 13.306 5.21592C13.4959 5.27921 13.7032 5.26448 13.8822 5.17497C14.0613 5.08546 14.1975 4.9285 14.2608 4.73863C14.3241 4.54875 14.3093 4.3415 14.2198 4.16248C13.6251 2.96585 12.7213 1.94982 11.6021 1.21946C10.4829 0.489105 9.1888 0.0709553 7.85373 0.00826168C6.51866 -0.0544319 5.19108 0.240608 4.00831 0.862864C2.82554 1.48512 1.83053 2.412 1.12619 3.54762C0.42186 4.68324 0.0337839 5.98637 0.00210762 7.32221C-0.0295687 8.65806 0.296305 9.97811 0.946019 11.1458C1.59573 12.3135 2.5457 13.2865 3.69765 13.9641C4.8496 14.6417 6.1617 14.9993 7.49824 14.9999Z" fill="#E40000"/>
</svg>
