<svg width="21" height="25" viewBox="0 0 21 25" fill="none" xmlns="http://www.w3.org/2000/svg">
<path d="M20.2628 16.6831L18.8571 15.5088V5.34306C18.8578 5.23026 18.8362 5.11843 18.7935 5.014C18.7509 4.90957 18.688 4.81458 18.6086 4.73449L14.3228 0.448781C14.2428 0.36934 14.1478 0.30649 14.0433 0.263834C13.9389 0.221179 13.8271 0.199557 13.7143 0.20021H0.857142C0.629814 0.20021 0.411797 0.290515 0.251051 0.451261C0.090306 0.612006 0 0.830024 0 1.05735V23.3431C0 23.5704 0.090306 23.7884 0.251051 23.9491C0.411797 24.1099 0.629814 24.2002 0.857142 24.2002H19.7143C19.9416 24.2002 20.1596 24.1099 20.3204 23.9491C20.4811 23.7884 20.5714 23.5704 20.5714 23.3431V17.3431C20.5716 17.2171 20.5441 17.0927 20.4907 16.9786C20.4374 16.8646 20.3596 16.7636 20.2628 16.6831ZM14.5714 3.12306L15.9343 4.48592H14.5714V3.12306ZM1.71428 1.91449H12.8571V5.34306C12.8571 5.57039 12.9474 5.78841 13.1082 5.94915C13.2689 6.1099 13.4869 6.20021 13.7143 6.20021H17.1428V14.0859L15.12 12.3716C14.966 12.2433 14.7719 12.1731 14.5714 12.1731C14.371 12.1731 14.1769 12.2433 14.0228 12.3716L10.1486 15.6288H4.28571C4.05838 15.6288 3.84037 15.7191 3.67962 15.8798C3.51888 16.0406 3.42857 16.2586 3.42857 16.4859C3.42857 16.7132 3.51888 16.9313 3.67962 17.092C3.84037 17.2528 4.05838 17.3431 4.28571 17.3431H8.57142V19.0573H4.28571C4.05838 19.0573 3.84037 19.1476 3.67962 19.3084C3.51888 19.4691 3.42857 19.6872 3.42857 19.9145C3.42857 20.1418 3.51888 20.3598 3.67962 20.5206C3.84037 20.6813 4.05838 20.7716 4.28571 20.7716H8.57142V22.4859H1.71428V1.91449ZM13.7143 22.4859V19.9145H15.4286V22.4859H13.7143ZM18.8571 22.4859H17.1428V19.0573C17.1428 18.83 17.0525 18.612 16.8918 18.4513C16.7311 18.2905 16.513 18.2002 16.2857 18.2002H12.8571C12.6298 18.2002 12.4118 18.2905 12.251 18.4513C12.0903 18.612 12 18.83 12 19.0573V22.4859H10.2857V17.7459L14.5714 14.1716L18.8571 17.7459V22.4859Z" fill="white"/>
<path d="M7.71432 11.343C7.48699 11.343 7.26897 11.4333 7.10823 11.5941C6.94748 11.7548 6.85718 11.9728 6.85718 12.2002C6.85718 12.4275 6.94748 12.6455 7.10823 12.8062C7.26897 12.967 7.48699 13.0573 7.71432 13.0573H8.57146C8.57146 13.2846 8.66177 13.5026 8.82251 13.6634C8.98326 13.8241 9.20128 13.9144 9.4286 13.9144C9.65593 13.9144 9.87395 13.8241 10.0347 13.6634C10.1954 13.5026 10.2857 13.2846 10.2857 13.0573C10.7404 13.0573 11.1764 12.8767 11.4979 12.5552C11.8194 12.2337 12 11.7977 12 11.343V10.4859C12 10.0312 11.8194 9.59518 11.4979 9.27369C11.1764 8.9522 10.7404 8.77159 10.2857 8.77159H8.57146V7.91444H11.1429C11.3702 7.91444 11.5882 7.82414 11.749 7.66339C11.9097 7.50265 12 7.28463 12 7.0573C12 6.82997 11.9097 6.61196 11.749 6.45121C11.5882 6.29047 11.3702 6.20016 11.1429 6.20016H10.2857C10.2857 5.97283 10.1954 5.75481 10.0347 5.59407C9.87395 5.43332 9.65593 5.34302 9.4286 5.34302C9.20128 5.34302 8.98326 5.43332 8.82251 5.59407C8.66177 5.75481 8.57146 5.97283 8.57146 6.20016C8.11681 6.20016 7.68077 6.38077 7.35928 6.70226C7.03779 7.02375 6.85718 7.45979 6.85718 7.91444V8.77159C6.85718 9.22624 7.03779 9.66228 7.35928 9.98377C7.68077 10.3053 8.11681 10.4859 8.57146 10.4859H10.2857V11.343H7.71432Z" fill="white"/>
</svg>
