<svg width="15" height="17" viewBox="0 0 15 17" fill="none" xmlns="http://www.w3.org/2000/svg">
<path d="M14.9106 11.7891C14.8961 11.746 14.8816 11.7028 14.8599 11.6596L13.5347 9.06894C13.3827 8.7667 13.2958 8.42847 13.2958 8.09025V6.19043C13.2958 4.44893 12.5427 2.7794 11.2321 1.6208C9.98662 0.512571 8.40806 0.0016354 6.77882 0.188739C3.7448 0.53416 1.70282 3.11762 1.70282 6.62221V8.09025C1.70282 8.42847 1.62317 8.7667 1.46386 9.06894L0.138745 11.6524C0.117021 11.6956 0.102539 11.7388 0.0880573 11.7819C-0.100211 12.4368 0.0301285 13.1276 0.44287 13.6746C0.855612 14.2215 1.49283 14.5309 2.18073 14.5309H4.19375C4.7658 15.819 6.06195 16.6898 7.50292 16.6898C8.9439 16.6898 10.2473 15.819 10.8121 14.5309H12.8251C13.513 14.5309 14.143 14.2215 14.563 13.6746C14.9757 13.1276 15.1061 12.4368 14.9178 11.7819L14.9106 11.7891ZM7.50292 15.2577C6.87295 15.2577 6.29366 14.9843 5.8954 14.5381H9.11769C8.71218 14.9843 8.1329 15.2577 7.50292 15.2577ZM13.4044 12.811C13.2668 12.9909 13.0568 13.0989 12.8251 13.0989H2.18073C1.94901 13.0989 1.73902 12.9981 1.60144 12.811C1.47834 12.6455 1.42766 12.4368 1.4711 12.2353L2.76002 9.7238C3.02069 9.22006 3.15828 8.65156 3.15828 8.09025V6.62221C3.15828 3.84445 4.6427 1.87986 6.94536 1.6136C8.15462 1.47687 9.33492 1.85827 10.269 2.68585C11.2683 3.57099 11.8476 4.85192 11.8476 6.18323V8.08305C11.8476 8.65156 11.9852 9.22006 12.2458 9.7166L13.5347 12.2281C13.5782 12.4296 13.5347 12.6383 13.4044 12.8038V12.811Z" fill="#335F32"/>
<path d="M14.9106 11.7891C14.8961 11.746 14.8816 11.7028 14.8599 11.6596L13.5347 9.06894C13.3827 8.7667 13.2958 8.42847 13.2958 8.09025V6.19043C13.2958 4.44893 12.5427 2.7794 11.2321 1.6208C9.98662 0.512571 8.40806 0.0016354 6.77882 0.188739C3.7448 0.53416 1.70282 3.11762 1.70282 6.62221V8.09025C1.70282 8.42847 1.62317 8.7667 1.46386 9.06894L0.138745 11.6524C0.117021 11.6956 0.102539 11.7388 0.0880573 11.7819C-0.100211 12.4368 0.0301285 13.1276 0.44287 13.6746C0.855612 14.2215 1.49283 14.5309 2.18073 14.5309H4.19375C4.7658 15.819 6.06195 16.6898 7.50292 16.6898C8.9439 16.6898 10.2473 15.819 10.8121 14.5309H12.8251C13.513 14.5309 14.143 14.2215 14.563 13.6746C14.9757 13.1276 15.1061 12.4368 14.9178 11.7819L14.9106 11.7891ZM7.50292 15.2577C6.87295 15.2577 6.29366 14.9843 5.8954 14.5381H9.11769C8.71218 14.9843 8.1329 15.2577 7.50292 15.2577ZM13.4044 12.811C13.2668 12.9909 13.0568 13.0989 12.8251 13.0989H2.18073C1.94901 13.0989 1.73902 12.9981 1.60144 12.811C1.47834 12.6455 1.42766 12.4368 1.4711 12.2353L2.76002 9.7238C3.02069 9.22006 3.15828 8.65156 3.15828 8.09025V6.62221C3.15828 3.84445 4.6427 1.87986 6.94536 1.6136C8.15462 1.47687 9.33492 1.85827 10.269 2.68585C11.2683 3.57099 11.8476 4.85192 11.8476 6.18323V8.08305C11.8476 8.65156 11.9852 9.22006 12.2458 9.7166L13.5347 12.2281C13.5782 12.4296 13.5347 12.6383 13.4044 12.8038V12.811Z" fill="black" fill-opacity="0.2"/>
</svg>
