<svg width="21" height="21" viewBox="0 0 21 21" fill="none" xmlns="http://www.w3.org/2000/svg">
<path d="M12.8864 10.7776C12.8864 10.9042 12.8361 11.0256 12.7466 11.1151C12.6571 11.2046 12.5357 11.2549 12.4091 11.2549H0.477273C0.350692 11.2549 0.229296 11.2046 0.13979 11.1151C0.050284 11.0256 0 10.9042 0 10.7776C0 10.651 0.050284 10.5296 0.13979 10.4401C0.229296 10.3506 0.350692 10.3003 0.477273 10.3003H12.4091C12.5357 10.3003 12.6571 10.3506 12.7466 10.4401C12.8361 10.5296 12.8864 10.651 12.8864 10.7776ZM21 10.7776C21 10.9042 20.9497 11.0256 20.8602 11.1151C20.7707 11.2046 20.6493 11.2549 20.5227 11.2549H16.2273C16.1007 11.2549 15.9793 11.2046 15.8898 11.1151C15.8003 11.0256 15.75 10.9042 15.75 10.7776C15.75 10.651 15.8003 10.5296 15.8898 10.4401C15.9793 10.3506 16.1007 10.3003 16.2273 10.3003H20.5227C20.6493 10.3003 20.7707 10.3506 20.8602 10.4401C20.9497 10.5296 21 10.651 21 10.7776ZM9.06818 3.14123C9.06818 3.26782 9.0179 3.38921 8.92839 3.47872C8.83889 3.56822 8.71749 3.61851 8.59091 3.61851H0.477273C0.350692 3.61851 0.229296 3.56822 0.13979 3.47872C0.050284 3.38921 0 3.26782 0 3.14123C0 3.01465 0.050284 2.89326 0.13979 2.80375C0.229296 2.71424 0.350692 2.66396 0.477273 2.66396H8.59091C8.71749 2.66396 8.83889 2.71424 8.92839 2.80375C9.0179 2.89326 9.06818 3.01465 9.06818 3.14123ZM21 3.14123C21 3.26782 20.9497 3.38921 20.8602 3.47872C20.7707 3.56822 20.6493 3.61851 20.5227 3.61851H12.4091C12.2825 3.61851 12.1611 3.56822 12.0716 3.47872C11.9821 3.38921 11.9318 3.26782 11.9318 3.14123C11.9318 3.01465 11.9821 2.89326 12.0716 2.80375C12.1611 2.71424 12.2825 2.66396 12.4091 2.66396H20.5227C20.6493 2.66396 20.7707 2.71424 20.8602 2.80375C20.9497 2.89326 21 3.01465 21 3.14123ZM5.25 18.414C5.25 18.5405 5.19972 18.6619 5.11021 18.7514C5.0207 18.841 4.89931 18.8912 4.77273 18.8912H0.477273C0.350692 18.8912 0.229296 18.841 0.13979 18.7514C0.050284 18.6619 0 18.5405 0 18.414C0 18.2874 0.050284 18.166 0.13979 18.0765C0.229296 17.987 0.350692 17.9367 0.477273 17.9367H4.77273C4.89931 17.9367 5.0207 17.987 5.11021 18.0765C5.19972 18.166 5.25 18.2874 5.25 18.414ZM21 18.414C21 18.5405 20.9497 18.6619 20.8602 18.7514C20.7707 18.841 20.6493 18.8912 20.5227 18.8912H8.59091C8.46433 18.8912 8.34293 18.841 8.25343 18.7514C8.16392 18.6619 8.11364 18.5405 8.11364 18.414C8.11364 18.2874 8.16392 18.166 8.25343 18.0765C8.34293 17.987 8.46433 17.9367 8.59091 17.9367H20.5227C20.6493 17.9367 20.7707 17.987 20.8602 18.0765C20.9497 18.166 21 18.2874 21 18.414Z" fill="white"/>
<path d="M16.7045 10.7776C16.7045 11.2495 16.5645 11.7109 16.3023 12.1034C16.0401 12.4958 15.6674 12.8017 15.2314 12.9823C14.7953 13.1629 14.3155 13.2102 13.8526 13.1181C13.3897 13.026 12.9645 12.7987 12.6307 12.465C12.297 12.1312 12.0697 11.706 11.9776 11.2431C11.8855 10.7802 11.9328 10.3004 12.1134 9.86434C12.294 9.42829 12.5999 9.05559 12.9923 8.79338C13.3848 8.53116 13.8462 8.3912 14.3181 8.3912C14.951 8.3912 15.558 8.64262 16.0056 9.09015C16.4531 9.53768 16.7045 10.1447 16.7045 10.7776ZM12.8863 10.7776C12.8863 11.0608 12.9703 11.3376 13.1276 11.573C13.285 11.8085 13.5086 11.992 13.7702 12.1004C14.0318 12.2088 14.3197 12.2371 14.5975 12.1819C14.8752 12.1266 15.1303 11.9903 15.3306 11.79C15.5308 11.5898 15.6672 11.3346 15.7224 11.0569C15.7777 10.7792 15.7493 10.4913 15.641 10.2296C15.5326 9.968 15.3491 9.74438 15.1136 9.58705C14.8782 9.42972 14.6013 9.34575 14.3181 9.34575C13.9384 9.34575 13.5742 9.4966 13.3057 9.76512C13.0372 10.0336 12.8863 10.3978 12.8863 10.7776ZM12.8863 3.1412C12.8863 3.61318 12.7464 4.07456 12.4841 4.46699C12.2219 4.85943 11.8492 5.16529 11.4132 5.34591C10.9771 5.52653 10.4973 5.57379 10.0344 5.48171C9.57149 5.38963 9.14628 5.16235 8.81254 4.82861C8.4788 4.49487 8.25152 4.06967 8.15945 3.60676C8.06737 3.14385 8.11463 2.66403 8.29524 2.22798C8.47586 1.79193 8.78173 1.41923 9.17416 1.15701C9.5666 0.894794 10.028 0.754837 10.5 0.754837C11.1329 0.754837 11.7398 1.00626 12.1874 1.45379C12.6349 1.90132 12.8863 2.5083 12.8863 3.1412ZM9.06814 3.1412C9.06814 3.42439 9.15211 3.70121 9.30944 3.93668C9.46677 4.17214 9.69039 4.35566 9.95202 4.46403C10.2137 4.5724 10.5015 4.60075 10.7793 4.54551C11.057 4.49026 11.3122 4.35389 11.5124 4.15365C11.7126 3.95341 11.849 3.69828 11.9043 3.42053C11.9595 3.14279 11.9312 2.8549 11.8228 2.59327C11.7144 2.33164 11.5309 2.10802 11.2954 1.95069C11.06 1.79336 10.7831 1.70938 10.5 1.70938C10.1202 1.70938 9.75603 1.86024 9.48751 2.12875C9.21899 2.39727 9.06814 2.76146 9.06814 3.1412ZM9.06814 18.4139C9.06814 18.8859 8.92818 19.3473 8.66596 19.7397C8.40375 20.1322 8.03105 20.438 7.595 20.6186C7.15895 20.7993 6.67913 20.8465 6.21622 20.7544C5.75331 20.6624 5.3281 20.4351 4.99436 20.1013C4.66062 19.7676 4.43334 19.3424 4.34126 18.8795C4.24919 18.4166 4.29644 17.9368 4.47706 17.5007C4.65768 17.0647 4.96355 16.692 5.35598 16.4297C5.74842 16.1675 6.2098 16.0276 6.68178 16.0276C7.31468 16.0276 7.92166 16.279 8.36919 16.7265C8.81672 17.174 9.06814 17.781 9.06814 18.4139ZM5.24996 18.4139C5.24996 18.6971 5.33393 18.9739 5.49126 19.2094C5.64859 19.4449 5.87221 19.6284 6.13384 19.7368C6.39547 19.8451 6.68336 19.8735 6.96111 19.8182C7.23885 19.763 7.49398 19.6266 7.69422 19.4264C7.89447 19.2261 8.03083 18.971 8.08608 18.6933C8.14133 18.4155 8.11297 18.1276 8.0046 17.866C7.89623 17.6044 7.71271 17.3807 7.47725 17.2234C7.24179 17.0661 6.96496 16.9821 6.68178 16.9821C6.30203 16.9821 5.93784 17.133 5.66933 17.4015C5.40081 17.67 5.24996 18.0342 5.24996 18.4139Z" fill="white"/>
</svg>
