<svg width="19" height="25" viewBox="0 0 19 25" fill="none" xmlns="http://www.w3.org/2000/svg">
<path d="M5.9375 9.8002H7.125C7.43994 9.8002 7.74199 9.67377 7.96469 9.44872C8.18739 9.22368 8.3125 8.91846 8.3125 8.6002C8.3125 8.28194 8.18739 7.97671 7.96469 7.75167C7.74199 7.52662 7.43994 7.4002 7.125 7.4002H5.9375C5.62256 7.4002 5.32051 7.52662 5.09781 7.75167C4.87511 7.97671 4.75 8.28194 4.75 8.6002C4.75 8.91846 4.87511 9.22368 5.09781 9.44872C5.32051 9.67377 5.62256 9.8002 5.9375 9.8002ZM5.9375 12.2002C5.62256 12.2002 5.32051 12.3266 5.09781 12.5517C4.87511 12.7767 4.75 13.0819 4.75 13.4002C4.75 13.7185 4.87511 14.0237 5.09781 14.2487C5.32051 14.4738 5.62256 14.6002 5.9375 14.6002H13.0625C13.3774 14.6002 13.6795 14.4738 13.9022 14.2487C14.1249 14.0237 14.25 13.7185 14.25 13.4002C14.25 13.0819 14.1249 12.7767 13.9022 12.5517C13.6795 12.3266 13.3774 12.2002 13.0625 12.2002H5.9375ZM19 8.5282C18.9876 8.41796 18.9637 8.30935 18.9288 8.2042V8.0962C18.8717 7.97281 18.7955 7.85939 18.7031 7.7602L11.5781 0.560195C11.48 0.466855 11.3677 0.389892 11.2456 0.332195C11.2102 0.327107 11.1742 0.327107 11.1388 0.332195C11.0181 0.262285 10.8849 0.217408 10.7469 0.200195H3.5625C2.61767 0.200195 1.71153 0.57948 1.04343 1.25461C0.375334 1.92974 0 2.84542 0 3.8002V20.6002C0 21.555 0.375334 22.4706 1.04343 23.1458C1.71153 23.8209 2.61767 24.2002 3.5625 24.2002H15.4375C16.3823 24.2002 17.2885 23.8209 17.9566 23.1458C18.6247 22.4706 19 21.555 19 20.6002V8.6002C19 8.6002 19 8.60019 19 8.5282ZM11.875 4.2922L14.9506 7.4002H13.0625C12.7476 7.4002 12.4455 7.27377 12.2228 7.04872C12.0001 6.82368 11.875 6.51846 11.875 6.2002V4.2922ZM16.625 20.6002C16.625 20.9185 16.4999 21.2237 16.2772 21.4487C16.0545 21.6738 15.7524 21.8002 15.4375 21.8002H3.5625C3.24756 21.8002 2.94551 21.6738 2.72281 21.4487C2.50011 21.2237 2.375 20.9185 2.375 20.6002V3.8002C2.375 3.48194 2.50011 3.17671 2.72281 2.95167C2.94551 2.72662 3.24756 2.6002 3.5625 2.6002H9.5V6.2002C9.5 7.15497 9.87533 8.07065 10.5434 8.74578C11.2115 9.42091 12.1177 9.8002 13.0625 9.8002H16.625V20.6002ZM13.0625 17.0002H5.9375C5.62256 17.0002 5.32051 17.1266 5.09781 17.3517C4.87511 17.5767 4.75 17.8819 4.75 18.2002C4.75 18.5185 4.87511 18.8237 5.09781 19.0487C5.32051 19.2738 5.62256 19.4002 5.9375 19.4002H13.0625C13.3774 19.4002 13.6795 19.2738 13.9022 19.0487C14.1249 18.8237 14.25 18.5185 14.25 18.2002C14.25 17.8819 14.1249 17.5767 13.9022 17.3517C13.6795 17.1266 13.3774 17.0002 13.0625 17.0002Z" fill="white"/>
</svg>
