<svg width="17" height="17" viewBox="0 0 17 17" fill="none" xmlns="http://www.w3.org/2000/svg">
<path fill-rule="evenodd" clip-rule="evenodd" d="M8.5 0C3.81418 0 0 3.81341 0 8.5C0 13.1874 3.81341 17 8.5 17C13.1866 17 17 13.1874 17 8.5C17 3.81341 13.1866 0 8.5 0ZM8.5 15.8409C4.45168 15.8409 1.15909 12.5475 1.15909 8.5C1.15909 4.45168 4.45168 1.15909 8.5 1.15909C12.5483 1.15909 15.8409 4.45168 15.8409 8.5C15.8409 12.5475 12.5483 15.8409 8.5 15.8409ZM11.3575 8.0325L7.71414 5.49564C7.64034 5.4428 7.55263 5.41287 7.46193 5.40957C7.37123 5.40627 7.28157 5.42976 7.20414 5.47709C7.04495 5.57136 6.95455 5.74909 6.95455 5.96391V11.0361C6.95455 11.2517 7.04495 11.4286 7.20414 11.5229C7.27197 11.5671 7.35114 11.5907 7.43209 11.5909C7.52945 11.5909 7.62527 11.5608 7.70641 11.5044L11.3537 8.9675C11.4279 8.91441 11.4882 8.84419 11.5295 8.7628C11.5708 8.68141 11.5919 8.59126 11.5909 8.5C11.5928 8.409 11.5725 8.3189 11.5319 8.23747C11.4912 8.15603 11.4314 8.08569 11.3575 8.0325Z" fill="black"/>
</svg>
