<svg width="15" height="18" viewBox="0 0 15 18" fill="none" xmlns="http://www.w3.org/2000/svg">
<path d="M7.30801 8.95392C9.50443 8.95392 11.285 7.17338 11.285 4.97696C11.285 2.78055 9.50443 1 7.30801 1C5.1116 1 3.33105 2.78055 3.33105 4.97696C3.33105 7.17338 5.1116 8.95392 7.30801 8.95392Z" stroke="#4B4B4B" stroke-width="1.5" stroke-linecap="round" stroke-linejoin="round"/>
<path fill-rule="evenodd" clip-rule="evenodd" d="M1.00001 14.4852C0.998958 14.2056 1.06148 13.9294 1.18288 13.6776C1.56381 12.9157 2.63806 12.5119 3.52945 12.3291C4.17232 12.1919 4.82408 12.1002 5.47985 12.0548C6.69397 11.9481 7.91511 11.9481 9.12923 12.0548C9.78495 12.1007 10.4367 12.1924 11.0796 12.3291C11.971 12.5119 13.0453 12.8776 13.4262 13.6776C13.6703 14.191 13.6703 14.787 13.4262 15.3004C13.0453 16.1003 11.971 16.466 11.0796 16.6413C10.4375 16.7841 9.78553 16.8784 9.12923 16.9232C8.14104 17.0069 7.14823 17.0222 6.15792 16.9689C5.92936 16.9689 5.70841 16.9689 5.47985 16.9232C4.82601 16.8789 4.17652 16.7847 3.53707 16.6413C2.63806 16.466 1.57143 16.1003 1.18288 15.3004C1.0621 15.0456 0.99964 14.7671 1.00001 14.4852Z" stroke="#4B4B4B" stroke-width="1.5" stroke-linecap="round" stroke-linejoin="round"/>
</svg>
