<svg width="29" height="22" viewBox="0 0 29 22" fill="none" xmlns="http://www.w3.org/2000/svg">
<path d="M27.9643 19.6002H24.8571V13.8567C26.2761 12.9327 26.9286 10.0977 26.9286 7.44124C26.9286 4.19675 25.955 0.700264 23.8214 0.700264C21.6879 0.700264 20.7143 4.19675 20.7143 7.44124C20.7143 10.1082 21.3668 12.9327 22.7857 13.8567V19.6002H18.6429V8.05024C18.6429 7.89858 18.6105 7.74871 18.5479 7.61096C18.4853 7.4732 18.394 7.35082 18.2804 7.25224L11.0304 0.952263C10.8428 0.789588 10.604 0.700195 10.3571 0.700195C10.1103 0.700195 9.87153 0.789588 9.68393 0.952263L2.43393 7.25224C2.32024 7.35082 2.22897 7.4732 2.16639 7.61096C2.10382 7.74871 2.07142 7.89858 2.07143 8.05024V19.6002H1.03571C0.761026 19.6002 0.497588 19.7108 0.303354 19.9077C0.10912 20.1047 0 20.3717 0 20.6502C0 20.9287 0.10912 21.1957 0.303354 21.3927C0.497588 21.5896 0.761026 21.7002 1.03571 21.7002H27.9643C28.239 21.7002 28.5024 21.5896 28.6966 21.3927C28.8909 21.1957 29 20.9287 29 20.6502C29 20.3717 28.8909 20.1047 28.6966 19.9077C28.5024 19.7108 28.239 19.6002 27.9643 19.6002ZM23.8214 2.80026C24.1839 3.16776 24.8571 4.72175 24.8571 7.38874C24.8571 10.0557 24.1839 11.5887 23.8214 11.9772C23.4589 11.6097 22.7857 10.0557 22.7857 7.38874C22.7857 4.72175 23.4589 3.20976 23.8214 2.80026ZM9.32143 19.6002V14.3502H11.3929V19.6002H9.32143ZM13.4643 19.6002V13.3002C13.4643 13.0217 13.3552 12.7547 13.1609 12.5578C12.9667 12.3609 12.7033 12.2502 12.4286 12.2502H8.28571C8.01103 12.2502 7.74759 12.3609 7.55335 12.5578C7.35912 12.7547 7.25 13.0217 7.25 13.3002V19.6002H4.14286V8.53324L10.3571 3.13626L16.5714 8.53324V19.6002H13.4643Z" fill="#335F32"/>
</svg>
