<svg width="14" height="15" viewBox="0 0 14 15" fill="none" xmlns="http://www.w3.org/2000/svg">
<path d="M6.26976 2.78185H2.69024C2.57885 2.78185 2.47202 2.8261 2.39325 2.90487C2.31449 2.98364 2.27024 3.09046 2.27024 3.20185V6.84186C2.27024 6.95325 2.31449 7.06007 2.39325 7.13884C2.47202 7.2176 2.57885 7.26186 2.69024 7.26186H6.26976C6.38115 7.26185 6.48798 7.2176 6.56674 7.13884C6.64551 7.06007 6.68976 6.95325 6.68976 6.84186V3.20185C6.68976 3.09046 6.64551 2.98364 6.56674 2.90487C6.48798 2.8261 6.38115 2.78185 6.26976 2.78185ZM5.84976 6.42185H3.11024V3.62185H5.84976V6.42185ZM5.04 4.46185H3.92V5.58185H5.04V4.46185ZM0.56 6.14185C0.708521 6.14185 0.850959 6.08285 0.95598 5.97783C1.061 5.87281 1.12 5.73038 1.12 5.58185V2.22185C1.12015 2.07338 1.1792 1.93103 1.28418 1.82604C1.38917 1.72105 1.53152 1.662 1.68 1.66185H5.04C5.18852 1.66185 5.33096 1.60286 5.43598 1.49783C5.541 1.39281 5.6 1.25038 5.6 1.10185C5.6 0.953334 5.541 0.810895 5.43598 0.705875C5.33096 0.600855 5.18852 0.541855 5.04 0.541855H1.68C1.23457 0.5423 0.807517 0.719442 0.492552 1.03441C0.177587 1.34937 0.00044476 1.77643 0 2.22185V5.58185C0 5.73038 0.0589998 5.87281 0.16402 5.97783C0.269041 6.08285 0.411479 6.14185 0.56 6.14185ZM6.26976 7.82186H2.69024C2.57885 7.82186 2.47202 7.86611 2.39325 7.94487C2.31449 8.02364 2.27024 8.13046 2.27024 8.24185V11.8819C2.27024 11.9932 2.31449 12.1001 2.39325 12.1788C2.47202 12.2576 2.57885 12.3019 2.69024 12.3019H6.26976C6.38115 12.3019 6.48798 12.2576 6.56674 12.1788C6.64551 12.1001 6.68976 11.9932 6.68976 11.8819V8.24185C6.68976 8.13046 6.64551 8.02364 6.56674 7.94487C6.48798 7.86611 6.38115 7.82186 6.26976 7.82186ZM5.84976 11.4619H3.11024V8.66185H5.84976V11.4619ZM5.04 9.50185H3.92V10.6219H5.04V9.50185ZM5.04 13.4219H1.68C1.53152 13.4217 1.38917 13.3627 1.28418 13.2577C1.1792 13.1527 1.12015 13.0103 1.12 12.8619V9.50185C1.12 9.35333 1.061 9.21089 0.95598 9.10588C0.850959 9.00085 0.708521 8.94185 0.56 8.94185C0.411479 8.94185 0.269041 9.00085 0.16402 9.10588C0.0589998 9.21089 0 9.35333 0 9.50185V12.8619C0.00044476 13.3073 0.177587 13.7343 0.492552 14.0493C0.807517 14.3643 1.23457 14.5414 1.68 14.5419H5.04C5.18852 14.5419 5.33096 14.4829 5.43598 14.3778C5.541 14.2728 5.6 14.1304 5.6 13.9819C5.6 13.8333 5.541 13.6909 5.43598 13.5859C5.33096 13.4809 5.18852 13.4219 5.04 13.4219ZM13.44 8.94185C13.2915 8.94185 13.149 9.00085 13.044 9.10588C12.939 9.21089 12.88 9.35333 12.88 9.50185V12.8619C12.8799 13.0103 12.8208 13.1527 12.7158 13.2577C12.6108 13.3627 12.4685 13.4217 12.32 13.4219H8.96C8.81148 13.4219 8.66904 13.4809 8.56402 13.5859C8.459 13.6909 8.4 13.8333 8.4 13.9819C8.4 14.1304 8.459 14.2728 8.56402 14.3778C8.66904 14.4829 8.81148 14.5419 8.96 14.5419H12.32C12.7654 14.5414 13.1925 14.3643 13.5074 14.0493C13.8224 13.7343 13.9996 13.3073 14 12.8619V9.50185C14 9.35333 13.941 9.21089 13.836 9.10588C13.731 9.00085 13.5885 8.94185 13.44 8.94185ZM8.68 10.9019H7.56V12.0219H8.68V10.9019ZM7.56 9.21849H8.68V8.0985H7.56V9.21849ZM12.32 0.541855H8.96C8.81148 0.541855 8.66904 0.600855 8.56402 0.705875C8.459 0.810895 8.4 0.953334 8.4 1.10185C8.4 1.25038 8.459 1.39281 8.56402 1.49783C8.66904 1.60286 8.81148 1.66185 8.96 1.66185H12.32C12.4685 1.662 12.6108 1.72105 12.7158 1.82604C12.8208 1.93103 12.8799 2.07338 12.88 2.22185V5.58185C12.88 5.73038 12.939 5.87281 13.044 5.97783C13.149 6.08285 13.2915 6.14185 13.44 6.14185C13.5885 6.14185 13.731 6.08285 13.836 5.97783C13.941 5.87281 14 5.73038 14 5.58185V2.22185C13.9996 1.77643 13.8224 1.34937 13.5074 1.03441C13.1925 0.719442 12.7654 0.5423 12.32 0.541855ZM8.96 5.58185H10.08V4.46185H8.96V5.58185ZM10.08 10.6219V9.50185H8.96V10.6219H10.08ZM11.3098 7.26186C11.4212 7.26185 11.528 7.2176 11.6067 7.13884C11.6855 7.06007 11.7298 6.95325 11.7298 6.84186V3.20185C11.7298 3.09046 11.6855 2.98364 11.6067 2.90487C11.528 2.8261 11.4212 2.78185 11.3098 2.78185H7.73024C7.61885 2.78185 7.51202 2.8261 7.43326 2.90487C7.35449 2.98364 7.31024 3.09046 7.31024 3.20185V6.84186C7.31024 6.95325 7.35449 7.06007 7.43326 7.13884C7.51202 7.2176 7.61885 7.26186 7.73024 7.26186H11.3098ZM8.15024 3.62185H10.8898V6.42185H8.15024V3.62185ZM11.48 8.0985H10.36V9.21849H11.48V8.0985ZM10.36 12.0219H11.48V10.9019H10.36V12.0219Z" fill="black"/>
</svg>
