<svg width="21" height="24" viewBox="0 0 21 24" fill="none" xmlns="http://www.w3.org/2000/svg">
<path fill-rule="evenodd" clip-rule="evenodd" d="M21 3.40874C21 2.70493 20.7234 2.02979 20.2312 1.53214C19.7387 1.03449 19.0711 0.754883 18.375 0.754883C14.7143 0.754883 6.28551 0.754883 2.625 0.754883C1.92864 0.754883 1.26105 1.03449 0.76881 1.53214C0.27657 2.02979 0 2.70493 0 3.40874C0 6.80015 0 14.1796 0 17.5672C0 19.0302 1.17096 20.2172 2.61807 20.221L6.60702 20.2316L9.19401 23.1636C9.52602 23.5398 10.0012 23.7549 10.5 23.7549C10.9987 23.7549 11.4738 23.5398 11.8058 23.1636L14.3928 20.2316L18.3819 20.221C19.8288 20.2172 21 19.0302 21 17.5672V3.40874ZM10.5 21.9857C9.48717 20.838 7.65282 18.7593 7.65282 18.7593C7.48734 18.5716 7.25088 18.4642 7.00224 18.4635L2.62269 18.4518C2.14032 18.4506 1.74993 18.0548 1.74993 17.5672V3.40874C1.74993 3.17414 1.84212 2.94909 2.00613 2.78328C2.17035 2.61725 2.39295 2.52405 2.625 2.52405H18.375C18.607 2.52405 18.8296 2.61725 18.9937 2.78328C19.1577 2.94909 19.2499 3.17414 19.2499 3.40874V17.5672C19.2499 18.0548 18.8597 18.4506 18.3773 18.4518C18.3771 18.4518 13.9975 18.4635 13.9975 18.4635C13.7491 18.4642 13.5124 18.5716 13.347 18.7593L10.5 21.9857ZM12.2499 16.678H16.6249C17.1079 16.678 17.4999 16.2816 17.4999 15.7933C17.4999 15.3052 17.1079 14.9088 16.6249 14.9088H12.2499C11.7669 14.9088 11.3749 15.3052 11.3749 15.7933C11.3749 16.2816 11.7669 16.678 12.2499 16.678ZM9.0153 15.4453L15.2025 9.19011C15.8859 8.49925 15.8859 7.37912 15.2025 6.68805C14.6632 6.14306 13.8854 5.35667 13.3463 4.81146C12.663 4.12061 11.5548 4.12061 10.8715 4.81146L4.68426 11.0667C4.56834 11.1839 4.48728 11.3319 4.45032 11.4934L3.52233 15.5591C3.4545 15.8564 3.54291 16.168 3.75627 16.3837C3.96963 16.5992 4.2777 16.6886 4.5717 16.62L8.59341 15.6819C8.75322 15.6445 8.89938 15.5625 9.0153 15.4453ZM12.1088 6.06259L13.965 7.93919L7.95543 14.015C7.95522 14.015 5.54232 14.5779 5.54232 14.5779L6.09924 12.1384L12.1088 6.06259ZM13.9999 14.0242H16.6249C17.1079 14.0242 17.4999 13.6278 17.4999 13.1395C17.4999 12.6514 17.1079 12.255 16.6249 12.255H13.9999C13.5171 12.255 13.125 12.6514 13.125 13.1395C13.125 13.6278 13.5171 14.0242 13.9999 14.0242Z" fill="white"/>
</svg>
