<svg width="21" height="25" viewBox="0 0 21 25" fill="none" xmlns="http://www.w3.org/2000/svg">
<path d="M8.27269 14.9087H4.59594C4.08855 14.9087 3.67675 14.4952 3.67675 13.9857C3.67675 13.4761 4.08855 13.0626 4.59594 13.0626H8.27269C8.78008 13.0626 9.19187 13.4761 9.19187 13.9857C9.19187 14.4952 8.78008 14.9087 8.27269 14.9087ZM4.59594 7.52411H14.4006C14.908 7.52411 15.3198 7.11058 15.3198 6.60104C15.3198 6.0915 14.908 5.67796 14.4006 5.67796H4.59594C4.08855 5.67796 3.67675 6.0915 3.67675 6.60104C3.67675 7.11058 4.08855 7.52411 4.59594 7.52411ZM4.59594 11.2164H10.7239C11.2312 11.2164 11.643 10.8029 11.643 10.2933C11.643 9.78381 11.2312 9.37027 10.7239 9.37027H4.59594C4.08855 9.37027 3.67675 9.78381 3.67675 10.2933C3.67675 10.8029 4.08855 11.2164 4.59594 11.2164ZM20.5236 23.097C19.9108 24.1346 18.8274 24.7549 17.6251 24.7549H3.37035C1.51114 24.7549 0 23.2373 0 21.3703V4.1395C0 2.27242 1.51114 0.754883 3.37035 0.754883H15.6262C17.4854 0.754883 18.9965 2.27242 18.9965 4.1395V16.8275L20.5837 19.7506C21.1597 20.809 21.1364 22.0595 20.5236 23.097ZM8.21754 19.7493L11.442 13.8133C12.0414 12.7093 13.1481 12.0484 14.4006 12.0484C15.5367 12.0484 16.5319 12.6109 17.1582 13.5352V4.13827C17.1582 3.29027 16.4706 2.59981 15.6262 2.59981H3.37035C2.52593 2.59981 1.83837 3.29027 1.83837 4.13827V21.369C1.83837 22.217 2.52593 22.9075 3.37035 22.9075H8.1967C7.68318 21.9081 7.6746 20.745 8.21754 19.7481V19.7493ZM18.9696 20.6343L15.7451 14.697C15.4718 14.1949 14.9693 13.8958 14.3994 13.8958C13.8295 13.8958 13.327 14.1961 13.0537 14.6983L9.82918 20.6343C9.56813 21.1155 9.57793 21.6853 9.85614 22.1555C10.1356 22.6269 10.627 22.9087 11.1736 22.9087H17.6227C18.1693 22.9087 18.662 22.6269 18.9402 22.1555C19.2184 21.6841 19.2294 21.1155 18.9671 20.6343H18.9696ZM14.3994 15.5241C13.892 15.5241 13.4802 15.9377 13.4802 16.4472V18.9087C13.4802 19.4183 13.892 19.8318 14.3994 19.8318C14.9068 19.8318 15.3186 19.4183 15.3186 18.9087V16.4472C15.3186 15.9377 14.9068 15.5241 14.3994 15.5241ZM14.3994 20.5087C13.9263 20.5087 13.5415 20.8952 13.5415 21.3703C13.5415 21.8453 13.9263 22.2318 14.3994 22.2318C14.8725 22.2318 15.2573 21.8453 15.2573 21.3703C15.2573 20.8952 14.8725 20.5087 14.3994 20.5087Z" fill="white"/>
</svg>
