<svg width="26" height="27" viewBox="0 0 26 27" fill="none" xmlns="http://www.w3.org/2000/svg">
<mask id="mask0_408_483" style="mask-type:luminance" maskUnits="userSpaceOnUse" x="0" y="0" width="26" height="27">
<path d="M26 0.200195H0V26.2002H26V0.200195Z" fill="white"/>
</mask>
<g mask="url(#mask0_408_483)">
<path d="M24.375 20.5128H19.5V18.0753C19.5 17.6444 19.3288 17.231 19.024 16.9263C18.7193 16.6215 18.306 16.4503 17.875 16.4503C19.2393 15.4271 20.2469 14.0006 20.7554 12.3729C21.2639 10.7452 21.2473 8.99872 20.708 7.38096C20.1688 5.76318 19.1342 4.35608 17.7508 3.35898C16.3673 2.36187 14.7053 1.82532 13 1.82532C11.2947 1.82532 9.63268 2.36187 8.24923 3.35898C6.86582 4.35608 5.83121 5.76318 5.29195 7.38096C4.75269 8.99872 4.73611 10.7452 5.24457 12.3729C5.75304 14.0006 6.76076 15.4271 8.125 16.4503H7.3125C6.88153 16.4503 6.4682 16.6215 6.16345 16.9263C5.8587 17.231 5.6875 17.6444 5.6875 18.0753V20.5128H1.625C1.19403 20.5128 0.780698 20.684 0.475951 20.9888C0.171205 21.2935 0 21.7069 0 22.1378V24.5753C0 25.0063 0.171205 25.4196 0.475951 25.7244C0.780698 26.0291 1.19403 26.2003 1.625 26.2003H4.0625C4.27799 26.2003 4.48465 26.1147 4.63703 25.9623C4.78939 25.81 4.875 25.6033 4.875 25.3878C4.875 25.1723 4.78939 24.9656 4.63703 24.8133C4.48465 24.661 4.27799 24.5753 4.0625 24.5753H1.625V22.1378H12.1875V24.5753H3.25C3.03451 24.5753 2.82785 24.661 2.67547 24.8133C2.52311 24.9656 2.4375 25.1723 2.4375 25.3878C2.4375 25.6033 2.52311 25.81 2.67547 25.9623C2.82785 26.1147 3.03451 26.2003 3.25 26.2003C8.45813 26.2003 12.4719 26.2816 13 25.9728C13.5444 26.2897 12.9269 26.2003 24.375 26.2003C24.806 26.2003 25.2193 26.0291 25.524 25.7244C25.8288 25.4196 26 25.0063 26 24.5753V22.1378C26 21.7069 25.8288 21.2935 25.524 20.9888C25.2193 20.684 24.806 20.5128 24.375 20.5128ZM6.5 9.95032C6.5 8.6647 6.88122 7.40803 7.59544 6.33911C8.30968 5.27019 9.32482 4.43707 10.5125 3.9451C11.7002 3.45313 13.0072 3.32441 14.2681 3.57521C15.529 3.82602 16.6871 4.44509 17.5962 5.35413C18.5053 6.26317 19.1243 7.42135 19.3751 8.68225C19.6259 9.94309 19.4972 11.2501 19.0052 12.4378C18.5132 13.6255 17.6802 14.6406 16.6112 15.3549C15.5423 16.0691 14.2856 16.4503 13 16.4503C11.2761 16.4503 9.62276 15.7655 8.40377 14.5465C7.18482 13.3276 6.5 11.6742 6.5 9.95032ZM7.3125 20.5128V18.0753H17.875V20.5128H7.3125ZM13.8125 24.5753V22.1378H24.375V24.5753H13.8125Z" fill="white"/>
<path d="M3.39472 7.31783C3.47935 7.51601 3.48179 7.73968 3.40151 7.93966C3.32122 8.13964 3.16478 8.29952 2.96661 8.38418L1.47218 9.02232C1.274 9.10698 1.05033 9.10942 0.850356 9.02914C0.650382 8.94887 0.490493 8.79238 0.405861 8.59421C0.32123 8.39604 0.31879 8.1724 0.399076 7.97242C0.479362 7.77245 0.6358 7.61256 0.833976 7.52793L2.3284 6.88973C2.52658 6.80509 2.75025 6.80265 2.95023 6.88293C3.1502 6.96323 3.31009 7.11966 3.39472 7.31783ZM4.46899 1.55809L5.1072 3.05252C5.19183 3.2507 5.19427 3.47437 5.11398 3.67435C5.03369 3.87432 4.87726 4.03421 4.67908 4.11884C4.48091 4.20347 4.25723 4.20592 4.05726 4.12563C3.85729 4.04534 3.6974 3.8889 3.61277 3.69073L2.97456 2.1963C2.88993 1.99813 2.88749 1.77445 2.96778 1.57447C3.04806 1.3745 3.2045 1.21462 3.40267 1.12999C3.60085 1.04535 3.82452 1.04291 4.0245 1.12319C4.22447 1.20349 4.38436 1.35992 4.46899 1.55809ZM3.18464 4.75708C3.24888 4.90513 3.26758 5.06895 3.23836 5.22768C3.20913 5.38639 3.13329 5.53281 3.02053 5.64826C2.90776 5.76371 2.76317 5.84297 2.60519 5.87591C2.4472 5.90887 2.28298 5.89402 2.13346 5.83327L1.06715 5.40516C0.866354 5.32455 0.705811 5.16747 0.620834 4.96849C0.535856 4.7695 0.533406 4.54491 0.614021 4.34412C0.694636 4.14333 0.851713 3.98278 1.05069 3.89781C1.24968 3.81283 1.47428 3.81038 1.67507 3.89099C2.80536 4.34479 3.01871 4.36854 3.18464 4.75708Z" fill="white"/>
</g>
</svg>
