<svg width="19" height="16" viewBox="0 0 19 16" fill="none" xmlns="http://www.w3.org/2000/svg">
<path d="M0.690181 15.7169C0.617277 15.7173 0.544812 15.7059 0.475725 15.6832C0.331245 15.6375 0.206221 15.5466 0.119951 15.4248C0.0336813 15.3029 -0.00903854 15.1567 -0.0016143 15.0088C-0.0016143 14.9076 0.710935 5.11514 10.7835 4.34631V0.825882C10.7834 0.691801 10.8242 0.560728 10.9009 0.449403C10.9776 0.338079 11.0865 0.251557 11.2139 0.200888C11.3412 0.150219 11.4811 0.137704 11.6158 0.164939C11.7505 0.192175 11.8738 0.257925 11.9699 0.353794L18.7979 7.15187C18.9247 7.27794 18.9957 7.44743 18.9957 7.62396C18.9957 7.80049 18.9247 7.96998 18.7979 8.09605L11.9699 14.8941C11.8738 14.99 11.7505 15.0557 11.6158 15.083C11.4811 15.1102 11.3412 15.0977 11.2139 15.047C11.0865 14.9964 10.9776 14.9098 10.9009 14.7985C10.8242 14.6872 10.7834 14.5561 10.7835 14.422V10.969C4.05923 11.2186 1.30242 15.3527 1.27475 15.4033C1.21234 15.4994 1.12602 15.5785 1.02381 15.6334C0.921606 15.6882 0.806839 15.7169 0.690181 15.7169ZM12.1671 2.47819V4.97689C12.1672 5.15174 12.0976 5.3198 11.9731 5.44562C11.8485 5.57144 11.6787 5.64518 11.4995 5.6513C4.98277 5.88398 2.65142 10.1159 1.81435 12.8372C3.54384 11.3804 6.62579 9.59999 11.4338 9.59999H11.4649C11.6484 9.59999 11.8243 9.67104 11.9541 9.79752C12.0838 9.924 12.1567 10.0955 12.1567 10.2744V12.7731L17.3452 7.62733L12.1671 2.47819Z" fill="#335F32"/>
<path d="M0.690181 15.7169C0.617277 15.7173 0.544812 15.7059 0.475725 15.6832C0.331245 15.6375 0.206221 15.5466 0.119951 15.4248C0.0336813 15.3029 -0.00903854 15.1567 -0.0016143 15.0088C-0.0016143 14.9076 0.710935 5.11514 10.7835 4.34631V0.825882C10.7834 0.691801 10.8242 0.560728 10.9009 0.449403C10.9776 0.338079 11.0865 0.251557 11.2139 0.200888C11.3412 0.150219 11.4811 0.137704 11.6158 0.164939C11.7505 0.192175 11.8738 0.257925 11.9699 0.353794L18.7979 7.15187C18.9247 7.27794 18.9957 7.44743 18.9957 7.62396C18.9957 7.80049 18.9247 7.96998 18.7979 8.09605L11.9699 14.8941C11.8738 14.99 11.7505 15.0557 11.6158 15.083C11.4811 15.1102 11.3412 15.0977 11.2139 15.047C11.0865 14.9964 10.9776 14.9098 10.9009 14.7985C10.8242 14.6872 10.7834 14.5561 10.7835 14.422V10.969C4.05923 11.2186 1.30242 15.3527 1.27475 15.4033C1.21234 15.4994 1.12602 15.5785 1.02381 15.6334C0.921606 15.6882 0.806839 15.7169 0.690181 15.7169ZM12.1671 2.47819V4.97689C12.1672 5.15174 12.0976 5.3198 11.9731 5.44562C11.8485 5.57144 11.6787 5.64518 11.4995 5.6513C4.98277 5.88398 2.65142 10.1159 1.81435 12.8372C3.54384 11.3804 6.62579 9.59999 11.4338 9.59999H11.4649C11.6484 9.59999 11.8243 9.67104 11.9541 9.79752C12.0838 9.924 12.1567 10.0955 12.1567 10.2744V12.7731L17.3452 7.62733L12.1671 2.47819Z" fill="black" fill-opacity="0.2"/>
</svg>
