<svg width="16" height="17" viewBox="0 0 16 17" fill="none" xmlns="http://www.w3.org/2000/svg">
<path d="M13.8069 7.22497C13.9643 7.22497 14.1126 7.15019 14.2084 7.02285L15.8953 4.77914C15.9632 4.68884 16 4.57819 16 4.46434C16 4.3505 15.9632 4.23984 15.8953 4.14955L14.2084 1.90583C14.1611 1.84297 14.1003 1.79206 14.0307 1.75701C13.9611 1.72197 13.8845 1.70373 13.8069 1.70372H9.54148V0.516906C9.54148 0.379814 9.48816 0.248337 9.39325 0.151398C9.29835 0.0544598 9.16962 0 9.0354 0H6.96486C6.83063 0 6.70191 0.0544598 6.607 0.151398C6.51209 0.248337 6.45877 0.379814 6.45877 0.516906V1.70372H1.85563C1.72141 1.70372 1.59269 1.75818 1.49778 1.85512C1.40287 1.95206 1.34955 2.08354 1.34955 2.22063V6.70806C1.34955 6.84515 1.40287 6.97663 1.49778 7.07357C1.59269 7.17051 1.72141 7.22497 1.85563 7.22497H6.45877V7.90642H2.19336C2.03596 7.90642 1.88768 7.98103 1.79203 8.10853L0.104761 10.3522C0.0368288 10.4425 0 10.5532 0 10.667C0 10.7809 0.0368288 10.8916 0.104761 10.9818L1.79203 13.2256C1.83927 13.2884 1.90003 13.3394 1.96962 13.3744C2.03921 13.4095 2.11577 13.4277 2.19336 13.4277H6.45877V16.4831C6.45877 16.6202 6.51209 16.7517 6.607 16.8486C6.70191 16.9455 6.83063 17 6.96486 17H9.0354C9.16962 17 9.29835 16.9455 9.39325 16.8486C9.48816 16.7517 9.54148 16.6202 9.54148 16.4831V13.4278H14.1443C14.2785 13.4278 14.4072 13.3734 14.5021 13.2764C14.597 13.1795 14.6504 13.048 14.6504 12.9109V8.42333C14.6504 8.28623 14.597 8.15476 14.5021 8.05782C14.4072 7.96088 14.2785 7.90642 14.1443 7.90642H9.54148V7.22497H13.8069ZM7.47094 1.03364H8.52932V1.70355H7.47094V1.03364ZM2.36171 2.73736H13.5576L14.8558 4.46417L13.5576 6.19115H2.36171V2.73736ZM8.52932 15.9664H7.47094V13.4278H8.52932V15.9664ZM13.6382 12.394H2.44269L1.14425 10.6672L2.44269 8.9404H13.6382V12.394ZM8.52932 7.90642H7.47094V7.22497H8.52932V7.90642Z" fill="black"/>
</svg>
