<svg width="16" height="13" viewBox="0 0 16 13" fill="none" xmlns="http://www.w3.org/2000/svg">
<path d="M15.894 6.44282C14.1545 2.76736 11.525 0.917664 8 0.917664C4.47319 0.917664 1.84551 2.76736 0.105961 6.44466C0.0361868 6.59285 0 6.7547 0 6.91858C0 7.08247 0.0361868 7.24432 0.105961 7.39251C1.84551 11.068 4.47502 12.9177 8 12.9177C11.5268 12.9177 14.1545 11.068 15.894 7.39067C16.0353 7.09251 16.0353 6.7465 15.894 6.44282ZM8 11.5925C5.04019 11.5925 2.87309 10.087 1.34456 6.91766C2.87309 3.74834 5.04019 2.24282 8 2.24282C10.9598 2.24282 13.1269 3.74834 14.6554 6.91766C13.1287 10.087 10.9616 11.5925 8 11.5925ZM7.9266 3.6784C6.14301 3.6784 4.69705 5.12871 4.69705 6.91766C4.69705 8.70662 6.14301 10.1569 7.9266 10.1569C9.71019 10.1569 11.1561 8.70662 11.1561 6.91766C11.1561 5.12871 9.71019 3.6784 7.9266 3.6784ZM7.9266 8.97901C6.79075 8.97901 5.87143 8.05693 5.87143 6.91766C5.87143 5.7784 6.79075 4.85631 7.9266 4.85631C9.06244 4.85631 9.98176 5.7784 9.98176 6.91766C9.98176 8.05693 9.06244 8.97901 7.9266 8.97901Z" fill="black"/>
</svg>
